<svg width="773" height="201" viewBox="0 0 773 201" fill="none" xmlns="http://www.w3.org/2000/svg">
<path d="M105.235 54.5506C104.608 56.3045 103.481 57.62 101.852 58.4969C100.223 59.2486 98.4695 59.3112 96.5903 58.6848C94.8364 58.0584 93.5836 56.9309 92.8319 55.3023L90.389 50.4164C89.1362 48.0361 86.8185 45.2799 83.436 42.148C79.9282 39.016 75.3555 36.3225 69.7179 34.0674C63.9551 31.6871 58.0669 30.1838 52.0535 29.5574C46.7918 28.931 43.284 28.9936 41.5301 29.7453C39.6509 30.6223 38.0849 31.8751 36.8321 33.5037C36.331 34.2554 36.1431 34.8818 36.2683 35.3829C36.6442 37.1368 38.2102 39.8929 40.9663 43.6513C43.8477 47.535 46.5412 50.3538 49.0468 52.1077C52.3041 54.3627 55.4987 56.8056 58.6307 59.4365C61.5121 61.8168 65.6463 64.8861 71.0333 68.6445C76.6709 72.5282 81.3689 75.9107 85.1273 78.7921C89.0109 81.7988 91.7044 83.9286 93.2078 85.1814C96.8409 88.1881 97.7178 92.8861 95.8386 99.2753C94.7111 103.159 93.2704 106.855 91.5165 110.363C89.7626 113.87 87.5076 117.253 84.7514 120.51C81.87 124.018 78.8007 126.711 75.5434 128.591C71.6597 130.72 66.0848 131.409 58.8186 130.658C52.0535 130.031 44.85 127.651 37.2079 123.517C29.5659 119.508 23.8657 115.562 20.1073 111.678C16.5995 108.045 14.0313 105.101 12.4026 102.846L10.5235 99.8391C9.52122 98.3357 9.20803 96.6444 9.58386 94.7652C9.9597 92.8861 10.8993 91.4453 12.4026 90.4431C13.906 89.4409 15.5973 89.1277 17.4765 89.5035C19.3556 89.8794 20.7964 90.819 21.7986 92.3223L23.6778 95.329C24.8053 96.8324 26.8724 99.15 29.8791 102.282C32.6352 105.163 37.2079 108.233 43.5972 111.49C49.7359 114.747 55.2482 116.689 60.134 117.316C64.6441 117.691 67.5882 117.503 68.9662 116.752C70.7201 115.75 72.5367 114.121 74.4159 111.866C76.4204 109.486 78.1116 106.917 79.4897 104.161C80.8678 101.405 81.9953 98.461 82.8722 95.329C82.9975 95.0784 83.0602 94.7653 83.0602 94.3894C81.6821 93.1366 79.6776 91.5706 77.0467 89.6914C73.2884 86.81 68.7157 83.4901 63.3287 79.7317C57.6911 75.7228 53.3063 72.4029 50.1743 69.772C47.2929 67.3917 44.3489 65.1993 41.3422 63.1949C37.5838 60.564 33.8254 56.743 30.067 51.7318C26.3086 46.4701 23.991 42.0853 23.114 38.5775C21.8612 33.8169 22.8635 29.3695 26.1207 25.2353C28.7516 21.978 32.0089 19.4098 35.8925 17.5306C39.9014 15.6514 45.7896 15.1503 53.5569 16.0272C60.8231 16.7789 67.9014 18.5955 74.7917 21.4769C81.8074 24.3583 87.6955 27.8661 92.4561 32.0003C97.2167 36.2598 100.537 40.394 102.416 44.403L104.859 49.2889C105.736 50.9175 105.861 52.6714 105.235 54.5506ZM172.759 147.758C171.381 149.136 169.752 149.825 167.873 149.825C166.119 149.825 164.553 149.136 163.175 147.758C161.922 146.506 161.296 144.94 161.296 143.06V140.242C161.296 138.613 160.858 134.667 159.981 128.403C158.978 121.763 158.039 114.434 157.162 106.416C156.285 98.0225 156.285 89.065 157.162 79.5438C157.914 70.5237 158.54 62.3806 159.041 55.1144C159.667 47.8482 160.106 42.3359 160.356 38.5775V36.3225C154.969 36.6983 150.209 37.0741 146.075 37.45C141.314 37.9511 137.931 38.4522 135.927 38.9533L132.544 39.705C130.791 40.0809 129.099 39.7677 127.471 38.7654C125.842 37.7632 124.84 36.3851 124.464 34.6312C124.088 32.8773 124.401 31.186 125.404 29.5574C126.406 27.9288 127.784 26.9265 129.538 26.5507L132.92 25.799C135.551 25.1726 139.497 24.6089 144.759 24.1077C149.896 23.4814 155.972 23.0429 162.987 22.7923C169.627 22.4165 174.952 21.978 178.96 21.4769C183.095 20.8505 186.665 20.2867 189.672 19.7856C192.679 19.2845 195.685 18.846 198.692 18.4702C201.824 17.9691 204.329 17.7185 206.209 17.7185L208.464 17.5306C210.343 17.5306 211.909 18.2196 213.162 19.5977C214.54 20.8505 215.229 22.4165 215.229 24.2957C215.354 26.0496 214.728 27.6156 213.35 28.9936C212.097 30.3717 210.531 31.0607 208.652 31.0607L206.397 31.2487C205.144 31.2487 203.202 31.4366 200.571 31.8124C197.69 32.1883 194.746 32.6267 191.739 33.1279C188.732 33.629 185.099 34.1927 180.84 34.8191C178.835 35.0697 176.58 35.3202 174.075 35.5708L173.887 39.3292C173.636 43.2128 173.26 48.8504 172.759 56.2419C172.133 63.5081 171.444 71.7139 170.692 80.8593C169.94 89.3782 169.94 97.3961 170.692 104.913C171.444 112.805 172.321 120.009 173.323 126.524C174.325 133.414 174.826 137.987 174.826 140.242V143.06C174.826 144.94 174.137 146.506 172.759 147.758ZM252.058 74.0942C255.315 73.7183 258.572 73.5304 261.83 73.5304C265.964 73.5304 270.537 74.47 275.548 76.3492C280.308 78.1031 284.631 80.3581 288.514 83.1143C288.514 83.1143 288.577 83.1769 288.702 83.3022C289.329 83.1769 289.892 83.0516 290.393 82.9264C294.778 82.0494 299.226 79.168 303.736 74.2821C307.995 69.6468 310.062 66.2016 309.937 63.9465C309.812 61.3157 308.496 58.4969 305.991 55.4902C303.109 51.9824 298.286 48.3493 291.521 44.5909C284.756 40.7073 277.803 37.8885 270.662 36.1346C263.521 34.5059 258.197 33.629 254.689 33.5037C252.058 33.5037 250.304 33.6916 249.427 34.0674C249.302 34.1927 249.177 34.318 249.051 34.4433C248.801 34.9444 248.55 35.5082 248.3 36.1346C248.049 37.1368 247.798 39.3918 247.548 42.8996C247.297 46.7833 247.798 52.1077 249.051 58.8727C249.928 63.3828 250.93 68.4566 252.058 74.0942ZM300.917 93.4498C304.299 96.8324 306.68 100.779 308.058 105.289C309.436 109.298 311.19 113.745 313.32 118.631C315.7 123.893 317.328 127.839 318.205 130.47C319.082 133.351 319.646 136.483 319.897 139.866C320.147 142.622 320.335 144.501 320.46 145.503V147.195C320.711 148.949 320.21 150.577 318.957 152.081C317.83 153.584 316.326 154.398 314.447 154.523C312.568 154.774 310.877 154.273 309.373 153.02C307.995 151.767 307.243 150.264 307.118 148.51L306.93 146.819C306.805 145.691 306.617 143.687 306.367 140.805C306.241 138.55 305.865 136.483 305.239 134.604C304.613 132.474 303.172 128.966 300.917 124.081C298.662 118.819 296.783 113.933 295.279 109.423C294.277 106.416 292.523 103.848 290.018 101.718C288.765 100.591 287.512 99.5259 286.259 98.5236C285.883 98.1478 285.445 97.772 284.944 97.3961C281.185 97.772 277.615 97.8972 274.232 97.772C268.094 97.5214 262.143 96.7071 256.38 95.329C257.257 100.591 258.009 105.414 258.635 109.799C259.763 118.568 259.262 125.647 257.132 131.034L254.689 137.423C253.937 139.177 252.684 140.43 250.93 141.181C249.302 141.933 247.611 141.996 245.857 141.369C244.103 140.617 242.85 139.365 242.098 137.611C241.347 135.857 241.347 134.166 242.098 132.537L244.541 125.96C245.794 122.828 246.045 118.067 245.293 111.678C244.416 104.913 243.1 97.3961 241.347 89.1277C239.217 86.3715 238.653 83.6154 239.655 80.8593C238.152 73.5931 236.837 67.0785 235.709 61.3157C234.331 53.5484 233.767 47.0965 234.018 41.96C234.394 36.8236 234.895 33.5037 235.521 32.0003C235.897 30.7476 236.398 29.4948 237.024 28.242C238.027 25.8617 239.969 23.8572 242.85 22.2286C245.481 20.7252 249.427 19.9735 254.689 19.9735C259.199 20.0988 265.588 21.101 273.857 22.9802C282.25 24.9847 290.393 28.242 298.286 32.752C306.304 37.3874 312.317 42.0853 316.326 46.8459C320.711 51.9824 323.091 57.432 323.467 63.1949C323.718 69.3336 320.46 76.0986 313.695 83.4901C309.686 87.8749 305.427 91.1948 300.917 93.4498ZM386.264 44.7788C384.886 45.1547 383.571 45.7811 382.318 46.658C379.938 48.1614 377.119 51.1054 373.862 55.4902C370.354 60.1255 367.535 64.9488 365.405 69.96C363.15 75.347 361.083 80.6087 359.204 85.7451C357.45 90.3805 356.385 94.7026 356.009 98.7115C355.759 103.222 355.759 107.481 356.009 111.49C356.26 114.497 357.951 118.067 361.083 122.201C364.466 126.461 368.412 129.593 372.922 131.597C377.683 133.727 381.378 134.729 384.009 134.604C386.765 134.479 389.208 133.915 391.338 132.913C393.844 131.911 396.224 130.532 398.479 128.779C401.11 126.774 404.179 124.331 407.687 121.45C410.569 119.195 412.636 116.814 413.888 114.309C415.517 111.302 416.895 107.794 418.023 103.785C419.15 100.152 419.714 96.5818 419.714 93.074C419.839 89.4409 419.463 85.7451 418.586 81.9868C417.709 78.1031 416.707 74.47 415.58 71.0875C414.703 68.5819 412.761 65.8884 409.754 63.007C405.996 59.6244 403.114 57.2441 401.11 55.866C399.231 54.488 397.477 53.3605 395.848 52.4835C393.593 51.356 391.902 50.2911 390.774 49.2889C389.522 48.4119 388.269 47.2218 387.016 45.7184C386.765 45.4679 386.515 45.1547 386.264 44.7788ZM387.392 30.6849C387.642 30.6849 387.956 30.6849 388.331 30.6849L392.09 30.1212C393.844 29.9959 395.472 30.497 396.976 31.6245C398.479 32.752 399.356 34.2554 399.607 36.1346C399.607 37.0115 399.481 37.8885 399.231 38.7654C399.857 39.2665 400.859 39.8929 402.237 40.6446C404.367 41.7721 406.622 43.2128 409.003 44.9667C411.383 46.5954 414.64 49.2889 418.774 53.0473C423.535 57.432 426.73 62.0047 428.358 66.7653C429.736 70.649 430.926 74.7832 431.929 79.168C432.931 83.678 433.369 88.3134 433.244 93.074C433.244 98.0852 432.492 103.034 430.989 107.92C429.611 112.555 427.92 116.752 425.915 120.51C423.785 124.644 420.528 128.465 416.143 131.973C412.51 134.855 409.378 137.36 406.747 139.49C403.615 141.87 400.296 143.812 396.788 145.315C393.155 147.069 389.02 148.009 384.385 148.134C379.75 148.259 374.112 146.881 367.472 144C360.833 140.993 355.132 136.483 350.372 130.47C345.611 124.206 342.98 118.192 342.479 112.43C342.229 107.794 342.229 102.908 342.479 97.772C342.98 92.3849 344.296 86.81 346.426 81.0472C348.43 75.6602 350.622 70.2105 353.003 64.6982C355.508 58.6848 358.828 52.922 362.962 47.4097C367.222 41.6468 371.231 37.5753 374.989 35.195C378.998 32.6894 383.132 31.186 387.392 30.6849ZM501.456 33.5037C499.702 32.8773 498.386 31.7498 497.509 30.1212C496.758 28.4925 496.695 26.8013 497.321 25.0473C497.948 23.2934 499.075 21.978 500.704 21.101L502.207 20.3494C503.961 19.4724 505.903 18.9713 508.033 18.846C509.16 18.7207 510.413 18.5328 511.791 18.2823C513.044 16.6536 514.673 15.8393 516.677 15.8393C518.18 15.714 519.559 16.0899 520.811 16.9668C522.816 17.5932 524.256 18.846 525.133 20.7252C526.136 23.1055 525.822 25.2979 524.194 27.3024L524.382 28.6178C524.632 32.8773 525.133 39.0786 525.885 47.2218C526.762 56.2419 527.326 62.6938 527.576 66.5774C528.078 71.338 528.328 78.6669 528.328 88.5639C528.203 98.5863 527.764 106.04 527.013 110.926C526.01 116.188 523.881 122.013 520.623 128.403C517.241 135.043 512.856 140.805 507.469 145.691C501.706 150.828 496.507 153.772 491.872 154.523C487.362 155.15 483.29 154.711 479.657 153.208C476.4 151.705 471.89 148.072 466.127 142.309C460.489 136.546 457.044 132.224 455.791 129.342C454.789 127.087 453.975 125.145 453.348 123.517C452.346 121.137 451.908 119.007 452.033 117.128V115.624C452.158 113.745 452.91 112.179 454.288 110.926C455.666 109.673 457.295 109.11 459.174 109.235C461.053 109.235 462.619 109.987 463.872 111.49C465.125 112.868 465.688 114.434 465.563 116.188V117.503C465.563 117.879 465.688 118.255 465.939 118.631C466.44 120.009 467.192 121.7 468.194 123.705C468.82 125.208 471.389 128.277 475.899 132.913C480.283 137.423 483.29 139.991 484.919 140.617C486.172 141.244 487.863 141.369 489.993 140.993C491.872 140.743 494.691 138.926 498.449 135.544C502.583 131.785 505.966 127.4 508.597 122.389C511.227 117.128 512.919 112.555 513.67 108.671C514.297 104.537 514.673 97.8346 514.798 88.5639C514.798 79.168 514.61 72.215 514.234 67.7049C513.733 63.0696 513.107 56.6804 512.355 48.5372C511.729 41.7721 511.29 36.2598 511.04 32.0003C510.413 32.1256 509.849 32.1883 509.348 32.1883C508.847 32.3135 508.471 32.4388 508.221 32.5641L506.717 33.3158C504.963 34.0674 503.21 34.1301 501.456 33.5037ZM558.373 141.745C557.12 142.998 555.554 143.624 553.675 143.624C551.796 143.624 550.167 142.998 548.789 141.745C547.536 140.367 546.91 138.738 546.91 136.859V133.289C546.91 130.908 546.973 127.839 547.098 124.081C547.348 120.573 547.536 114.497 547.662 105.852C547.787 97.0829 547.912 90.4431 548.037 85.9331C548.163 81.2977 548.601 74.9085 549.353 66.7653C550.105 58.3716 551.232 51.6065 552.735 46.4701C554.489 41.2084 555.93 37.7005 557.058 35.9466C558.31 34.318 560.002 33.1905 562.131 32.5641C564.386 31.9377 566.704 32.3135 569.084 33.6916C569.586 33.9422 570.024 34.2554 570.4 34.6312C570.776 35.007 571.152 35.4455 571.527 35.9466C571.903 36.3225 572.154 36.6983 572.279 37.0742C572.53 37.3247 572.78 37.7632 573.031 38.3896C573.407 38.8907 573.657 39.2665 573.782 39.5171C573.908 39.7677 574.096 40.2688 574.346 41.0204C574.722 41.6468 574.973 42.148 575.098 42.5238C576.601 45.6558 578.981 49.9153 582.239 55.3023C585.621 60.8146 590.069 67.7049 595.581 75.9734C601.093 84.1165 606.355 91.1322 611.366 97.0203C616.503 103.034 621.075 108.546 625.084 113.557C627.966 117.065 630.659 120.197 633.165 122.953C632.789 117.566 632.601 111.427 632.601 104.537C632.601 96.7697 632.288 89.1277 631.661 81.6109C631.035 74.2194 630.283 67.1412 629.406 60.3761C628.404 53.4857 627.59 48.0361 626.963 44.0272C626.337 40.0182 625.773 36.8236 625.272 34.4433L624.708 30.6849C624.333 28.8057 624.646 27.1144 625.648 25.6111C626.776 23.9825 628.216 23.0429 629.97 22.7923C631.849 22.4165 633.541 22.7923 635.044 23.9198C636.673 25.0473 637.675 26.488 638.051 28.242L638.614 32.0003C639.116 34.5059 639.679 37.7632 640.306 41.7721C640.932 45.9063 641.746 51.4813 642.749 58.4969C643.751 65.5125 644.565 72.904 645.192 80.6713C645.818 88.4386 646.131 96.3939 646.131 104.537C646.131 112.304 646.444 119.132 647.071 125.02C647.572 131.409 647.822 135.669 647.822 137.799C647.822 137.924 647.822 138.237 647.822 138.738C647.822 139.114 647.635 139.803 647.259 140.805C647.008 141.682 646.632 142.497 646.131 143.248C645.755 144 645.004 144.689 643.876 145.315C642.874 145.942 641.684 146.192 640.306 146.067C638.176 146.067 636.109 145.19 634.104 143.436C632.601 141.933 630.033 139.302 626.4 135.544C622.641 131.66 618.695 127.15 614.561 122.013C610.677 117.128 606.167 111.741 601.031 105.852C595.644 99.5885 590.069 92.197 584.306 83.678C578.668 75.159 574.096 68.0181 570.588 62.2553C568.458 58.7475 566.641 55.5528 565.138 52.6714C564.136 56.6804 563.322 61.8168 562.695 68.0808C562.069 75.8481 561.693 81.8615 561.568 86.121C561.442 90.631 561.317 97.2708 561.192 106.04C561.067 114.81 560.879 121.074 560.628 124.832C560.503 128.215 560.44 131.034 560.44 133.289V136.859C560.44 138.738 559.751 140.367 558.373 141.745ZM674.642 142.872C672.888 143.248 671.197 142.935 669.568 141.933C668.065 140.931 667.125 139.49 666.749 137.611C666.374 135.732 666.687 134.04 667.689 132.537L669.944 128.779C671.447 126.524 673.514 122.89 676.145 117.879C678.651 113.244 680.405 108.045 681.407 102.282C682.535 95.6422 684.414 86.9353 687.045 76.1613C689.675 65.3873 691.617 57.5573 692.87 52.6714C694.248 47.2844 695.877 42.9623 697.756 39.705C699.009 37.3247 700.888 35.4455 703.394 34.0674C705.899 32.6894 708.593 32.6267 711.474 33.8795C713.228 34.6312 714.731 35.7587 715.984 37.2621C717.237 38.7654 718.114 40.1435 718.615 41.3963C719.241 42.6491 719.93 44.4656 720.682 46.8459C722.561 51.9824 724.378 56.9309 726.132 61.6915C728.011 66.7027 730.517 74.8458 733.649 86.121C736.655 96.6444 739.286 103.973 741.541 108.107C744.047 112.618 746.928 118.067 750.185 124.456C753.317 130.345 755.76 134.604 757.514 137.235C759.769 140.242 761.273 142.434 762.024 143.812L762.776 145.315C763.528 146.944 763.59 148.635 762.964 150.389C762.337 152.143 761.21 153.396 759.581 154.148C757.953 155.025 756.261 155.15 754.508 154.523C752.754 154.022 751.438 152.957 750.561 151.329L749.81 149.825C749.434 149.074 748.369 147.508 746.615 145.128C744.36 141.996 741.541 137.172 738.159 130.658C735.904 126.273 733.836 122.327 731.957 118.819C731.08 118.944 730.266 118.882 729.514 118.631L725.192 117.691C722.436 117.19 718.991 116.689 714.857 116.188C710.597 115.562 706.275 115.123 701.89 114.873C697.631 114.622 694.561 114.497 692.682 114.497H692.306C691.179 117.879 689.801 121.074 688.172 124.081C685.291 129.468 683.036 133.477 681.407 136.107L678.964 139.866C677.962 141.369 676.521 142.371 674.642 142.872ZM695.313 100.967C697.318 101.092 699.823 101.217 702.83 101.342C707.465 101.718 712.038 102.157 716.548 102.658C719.805 103.034 722.624 103.472 725.004 103.973C723.751 100.09 722.311 95.329 720.682 89.6914C717.675 78.9174 715.295 71.1501 713.541 66.3895C711.662 61.5036 709.783 56.4298 707.904 51.1681C707.904 51.0428 707.841 50.7922 707.716 50.4164C707.089 52.045 706.526 53.9242 706.024 56.054C704.772 60.9398 702.83 68.7072 700.199 79.3559C698.069 88.0002 696.441 95.2037 695.313 100.967Z" fill="#DE415F"/>
</svg>
