<svg width="260" height="260" viewBox="0 0 260 260" fill="none" xmlns="http://www.w3.org/2000/svg">
<path d="M170.31 191.167C170.138 186.85 169.182 182.521 168.936 178.229C167.551 154.403 166.987 122.544 157.924 100.581C151.977 86.1725 148.212 89.9985 147.182 69.7404C146.446 55.307 147.832 46.0364 144.435 28.1572C142.412 17.5376 142.375 13.3682 129.977 13.9814C128.187 14.0672 121.111 15.269 119.517 15.9066C110.811 19.3402 115.569 26.6243 115.789 33.1114C115.789 33.1727 115.238 33.8962 115.238 33.9452C115.655 47.7532 116.672 72.1194 111.939 84.6029C109.928 89.925 105.476 95.4923 103.122 100.851C99.7497 108.564 93.2013 137.762 91.8402 146.837C88.1368 171.571 90.5158 193.999 94.0475 218.427C94.305 220.291 94.0352 223.467 94.3172 225.306C98.6215 253.609 150.444 244.731 157.79 239.764C160.512 237.925 166.03 230.334 167.281 227.232C170.518 219.224 170.69 200.106 170.31 191.167ZM133.828 20.591C134.662 20.5542 137.065 20.3335 137.544 20.9957C137.948 21.5475 140.008 32.5595 139.199 34.4971C137.384 38.8381 121.565 38.3108 120.756 35.8705C120.449 34.963 120.314 25.4962 119.922 22.6512C120.204 22.0013 132.307 20.6401 133.828 20.591ZM160.953 231.364C157.532 235.914 138.046 237.618 132.038 237.704C132.258 234.687 131.792 214.822 132.32 213.743C132.675 213.007 137.875 212.798 146.226 205.343C157.557 195.238 160.119 182.828 159.298 168.039C158.832 159.541 153.829 134.684 145.944 130.454C139.003 126.726 112.098 125.242 107.255 132.514C106.31 133.936 102.006 149.363 101.479 152.061C101.246 153.238 101.822 154.145 101.749 154.55C101.687 154.881 100.498 157.935 100.093 161.147C98.4621 174.281 97.0641 195.446 106.703 205.759C114.477 214.061 122.828 213.902 123.638 214.429C123.858 214.576 124.238 215.852 124.324 215.95C125.465 217.103 125.931 217.225 125.98 217.323C127.39 219.837 128.347 233.645 128.739 237.704C118.61 238.244 105.771 234.822 101.479 224.485C100.387 211.952 97.5546 199.604 96.7943 187.034C94.9426 156.475 98.9281 140.08 105.611 111.042C109.18 96.412 116.157 90.44 119.1 74.6946C121.283 63.0081 119.714 44.7733 121.161 44.2705C122.093 43.9517 132.773 47.4834 139.886 41.5114C142.522 41.9896 140.303 75.7492 142.228 85.4368C143.7 92.8067 149.598 99.4409 152.418 106.639C160.892 128.295 160.868 156.831 162.327 179.873C162.633 184.778 164.007 191.436 164.252 197.776C164.546 205.208 164.657 225.797 160.953 231.364ZM147.599 149.179C147.828 149.318 148.057 149.453 148.286 149.584C152.271 162.876 155.19 178.953 149.941 192.27C143.307 209.107 123.147 213.117 111.387 198.88C103.514 189.34 104.066 167.267 106.568 155.789C120.278 158.376 136.072 158.045 147.599 149.179ZM107.537 147.388C111.044 135.395 107.034 135.015 116.206 134.304C123.552 133.74 143.209 134.108 146.361 142.434C138.414 148.909 127.231 150.405 117.31 149.731C115.912 149.633 107.745 148.59 107.537 147.388Z" fill="#DE415F"/>
</svg>
