<svg width="260" height="260" viewBox="0 0 260 260" fill="none" xmlns="http://www.w3.org/2000/svg">
<path d="M151.135 57.5689L151.966 48.0921C153.462 47.8427 156.121 46.5957 157.783 46.1801C158.199 54.41 161.107 54.7425 153.462 57.3196C151.468 57.9846 151.302 57.5689 151.135 57.5689Z" fill="#DE415F"/>
<path fill-rule="evenodd" clip-rule="evenodd" d="M179.805 226.573C179.057 227.238 170.913 231.478 169.999 231.728C167.086 232.484 162.968 232.208 158.639 231.917C153.46 231.569 147.98 231.2 143.906 232.559C141.09 232.095 139.024 232.167 137.031 232.236C134.377 232.328 131.854 232.416 127.868 231.229C120.127 228.925 116.917 224.158 115.471 222.01C115.038 221.367 114.763 220.959 114.572 220.921C114.467 220.921 114.01 221.035 113.362 221.198C111.948 221.554 109.628 222.137 108.09 222.251C91.5532 223.414 77.2601 217.762 74.8502 199.805C74.5178 197.228 73.853 189.165 75.0995 187.336C74.5508 184.866 74.9078 182.323 75.2615 179.804C75.4436 178.508 75.6247 177.218 75.6812 175.947C75.8212 170.798 75.5481 165.383 75.2661 159.789C74.8787 152.108 74.4744 144.09 75.0995 135.961C75.8474 127.066 79.9192 110.107 83.2432 101.711C83.7614 100.435 85.1591 97.7247 86.4734 95.176C87.899 92.4113 89.2264 89.8371 89.2264 89.4911C89.2264 89.1045 88.8051 88.746 88.4361 88.4319C88.1703 88.2057 87.9316 88.0025 87.8968 87.8285C86.7622 84.5937 87.0605 83.1797 87.4434 81.3651C87.6214 80.5215 87.8177 79.5914 87.8968 78.3516C87.9858 77.3713 87.7885 76.7732 87.5989 76.1988C87.4348 75.7015 87.2765 75.2219 87.3151 74.5276C87.3151 74.4332 87.4094 74.1544 87.5532 73.7293C88.0426 72.2824 89.1055 69.1399 88.9771 65.7989C88.911 64.8407 88.4118 64.1451 87.9436 63.493C87.234 62.5044 86.596 61.6156 87.6475 60.0629C89.5588 57.1533 105.763 58.0677 109.004 59.3978C113.03 60.9969 112.036 61.9631 110.952 63.0178C110.514 63.4435 110.062 63.8837 109.918 64.3857C109.577 65.6821 109.81 69.1908 110.082 73.297C110.474 79.1962 110.947 86.3287 109.918 89.9067L116.067 101.961C117.204 97.3104 119.913 92.082 122.26 87.553C123.689 84.7955 124.984 82.2973 125.707 80.3467C127.037 76.7721 130.527 63.2218 129.197 60.2291C129.173 60.1573 129.005 60.0855 128.757 59.98C128.144 59.7189 127.047 59.2516 126.455 58.0677C126.899 55.7787 126.795 51.4679 126.687 46.9413C126.531 40.4535 126.365 33.5225 127.784 31.4659C131.192 26.6444 157.866 25.8962 161.19 30.6346C162.277 32.1793 162.144 37.7406 162.036 42.2232C161.987 44.2538 161.944 46.0632 162.021 47.1776C162.094 48.2739 162.396 49.4488 162.702 50.6415C163.44 53.5186 164.205 56.4996 161.855 58.7328C161.601 58.959 161.212 59.1276 160.812 59.3005C160.038 59.636 159.224 59.9883 159.279 60.811C161.284 66.0453 163.441 71.2101 165.598 76.3735C168.716 83.839 171.834 91.3018 174.486 98.968V99.1342C177.946 109.083 178.342 111.029 179.904 118.69L179.905 118.695L179.908 118.707C180.146 119.875 180.411 121.177 180.719 122.66C181.108 124.492 181.517 126.133 181.907 127.704L181.908 127.705C183.184 132.836 184.278 137.234 183.96 145.189L183.378 149.345C184.146 157.429 183.834 165.563 183.522 173.692C183.26 180.526 182.998 187.357 183.378 194.152C183.508 196.279 183.865 198.429 184.223 200.589C184.552 202.566 184.881 204.553 185.04 206.539C185.129 207.607 185.004 210.175 184.893 212.434C184.798 214.395 184.713 216.122 184.791 216.431C184.791 216.484 184.882 216.52 185.004 216.568C185.268 216.672 185.679 216.834 185.622 217.346C185.32 217.934 185.021 218.553 184.716 219.185C183.425 221.855 182.022 224.758 179.805 226.573ZM86.1517 210.114C81.6643 206.955 79.0882 198.309 79.2544 193.155C79.2544 192.49 79.6238 191.751 79.87 191.258C79.9931 191.012 80.0854 190.827 80.0854 190.744C80.584 180.187 80.6671 169.795 80.6671 159.238C80.6671 157.933 80.5027 156.584 80.3197 155.081C80.0711 153.042 79.7883 150.721 79.8361 147.849C80.3347 129.976 85.9024 105.702 94.3785 89.8236C95.6027 89.6566 96.8641 89.7878 98.1129 89.9177C98.7291 89.9818 99.3422 90.0455 99.9462 90.073L99.78 90.1561L99.8005 90.2373C100.168 90.224 100.588 90.1438 101.025 90.0601C101.868 89.899 102.778 89.725 103.519 89.9899V89.9067C104.775 94.7521 109.172 101.75 111.632 105.665C112.591 107.191 113.255 108.248 113.325 108.528C113.518 109.452 112.89 114.319 112.185 119.781C111.383 125.999 110.481 132.99 110.577 135.814L110.749 135.795C110.567 133.015 111.534 125.637 112.376 119.21C113.07 113.914 113.679 109.263 113.491 108.362C113.421 108.082 112.757 107.024 111.798 105.499C109.338 101.583 104.941 94.5858 103.686 89.7405C104.229 89.9036 106.231 94.3357 107.806 97.8239C108.639 99.6679 109.353 101.248 109.669 101.794C109.969 102.362 110.753 103.44 111.593 104.596C112.845 106.318 114.223 108.214 114.322 108.861C114.39 109.436 113.837 113.406 113.169 118.201C112.198 125.176 110.983 133.898 111.081 136.46L110.915 136.626L113.325 207.952C114.17 209.959 114.31 212.2 114.449 214.42C114.529 215.696 114.609 216.964 114.821 218.177C113.824 215.683 112.827 212.94 112.245 210.28C108.339 211.277 97.8687 213.688 94.6278 213.273C94.6248 213.215 94.6233 213.155 94.6233 213.094C93.1317 212.884 93.2092 212.408 93.2735 212.013C93.3147 211.76 93.3506 211.54 92.9658 211.444C92.9085 211.429 92.8191 211.487 92.6843 211.573C92.0376 211.988 90.3467 213.072 86.1517 210.114ZM93.3813 72.5324L92.9658 65.0507C95.1576 64.8514 97.2964 64.8645 99.4669 64.8777C100.012 64.8811 100.559 64.8844 101.11 64.8844C101.261 64.8844 101.54 64.8743 101.893 64.8615C103.286 64.8108 105.813 64.719 106.012 65.0507V71.5349C105.779 72.0602 104.194 72.0118 102.666 71.9651C102.018 71.9453 101.38 71.9258 100.86 71.9505C100.112 72.0004 99.3645 72.0278 98.6166 72.0553C96.8715 72.1193 95.1264 72.1833 93.3813 72.5324ZM92.4672 84.0045L92.6334 76.2733H102.772L102.774 76.3554C102.852 76.3235 104.786 75.5454 105.763 76.5227V84.6695C105.075 85.4962 103.758 85.0669 103.233 84.8956C103.124 84.8602 103.049 84.8358 103.021 84.8358V84.7526L103.018 84.6696C102.728 84.6829 102.278 84.719 101.724 84.7635L101.722 84.7636C98.7748 85.0003 92.8867 85.473 92.4672 84.0045ZM120.389 211.277C119.059 197.228 117.896 183.262 117.979 169.13C115.403 147.35 115.153 123.658 121.469 102.543C122.79 98.1932 124.676 93.9442 126.565 89.6867C130.382 81.087 134.213 72.453 133.435 62.8893C134.297 62.9636 135.164 63.0459 136.035 63.1286C140.036 63.5082 144.118 63.8957 148.144 63.5543C148.862 67.5756 150.076 71.5039 151.33 75.4194C150.077 71.4763 148.867 67.521 148.144 63.4712C148.66 63.4282 150.265 62.9627 151.74 62.5347C153.118 62.1352 154.382 61.7685 154.542 61.8086C154.822 61.9018 155.467 63.8751 156.243 66.2503C156.852 68.1131 157.541 70.2231 158.199 71.8674V71.9505L158.282 72.1168L158.264 72.1166L158.292 72.1863C161.31 79.8573 163.612 85.7076 166.314 93.6476H166.343C166.343 93.6476 167.007 94.8946 167.423 96.0584L165.761 97.3054C169.583 111.521 176.813 138.704 176.896 152.338C176.896 152.562 176.895 152.787 176.893 153.012L177.229 155.829C177.249 155.548 177.267 155.266 177.284 154.984L176.979 152.421C176.979 138.798 169.678 111.647 165.853 97.4222L165.844 97.3885L167.44 96.1913L167.423 96.1415H167.506L167.44 96.1913C169.677 102.826 171.748 109.709 173.406 116.509C173.41 116.741 173.419 116.974 173.431 117.208C178.764 139.182 178.256 150.754 177.624 165.162C177.304 172.468 176.951 180.503 177.312 190.994C177.384 193.102 177.807 198.056 178.238 203.117L178.238 203.118C178.793 209.63 179.363 216.317 179.223 217.346C178.822 219.674 175.087 221.46 172.96 222.029C172.938 222.107 172.92 222.181 172.907 222.251C171.434 222.619 169.704 222.758 168.017 222.893C166.66 223.002 165.33 223.109 164.182 223.331V223.248C163.978 223.277 163.754 223.296 163.524 223.316C163.097 223.352 162.649 223.39 162.271 223.498C161.44 222.583 158.531 224.246 157.95 224.828L157.166 222.005L157.119 222.001C157.103 222.001 157.089 222.001 157.074 222.001C157.061 222 157.049 222 157.037 221.999C157.023 221.998 157.01 221.998 156.997 221.997L157.016 221.999L157.035 222.001L157.855 224.954C157.862 224.936 157.866 224.921 157.866 224.911C158.531 224.246 161.44 222.666 162.188 223.581H162.271C157.042 224.909 161.097 226.155 157.63 225.495C157.622 225.526 157.617 225.553 157.617 225.576C152.258 224.536 150.102 224.937 147.335 225.451C145.898 225.718 144.296 226.016 141.994 226.158C138.671 226.324 131.524 226.407 128.782 225.576C120.195 222.955 120.338 215.299 120.395 212.263C120.403 211.832 120.409 211.494 120.389 211.277ZM154.127 42.1067C146.233 44.4343 137.673 44.85 129.696 42.2729C129.197 36.0381 130.277 33.3779 136.593 32.3804C142.078 31.5491 148.809 31.9647 154.127 33.4611V33.3779C154.56 34.4814 154.751 35.9399 154.752 37.4345C154.753 35.9307 154.562 34.4431 154.127 33.2948C154.376 33.2948 157.7 33.3779 158.199 35.0406C158.282 35.29 158.282 40.444 158.199 40.7766C157.871 41.5149 154.872 41.7675 154.154 42.0137L154.137 42.0735L154.127 42.1067ZM151.052 57.4858L151.883 48.0089V47.9258C144.487 49.2559 136.925 48.5077 129.862 46.1801C129.978 48.2549 129.882 49.9995 129.801 51.4667C129.535 56.2896 129.435 58.1148 137.59 58.8159C142.327 59.2316 146.565 58.5665 151.052 57.4858ZM151.966 48.0921L151.135 57.5689C151.302 57.5689 151.468 57.9846 153.462 57.3196C161.107 54.7425 158.199 54.41 157.783 46.1801C156.121 46.5957 153.462 47.8427 151.966 48.0921Z" fill="#DE415F"/>
</svg>
