<svg width="260" height="260" viewBox="0 0 260 260" fill="none" xmlns="http://www.w3.org/2000/svg">
<path d="M45.2748 155.197C45.5864 153.906 47.4017 153.797 48.6877 153.456C50.0281 153.1 51.3587 152.679 52.6892 152.278C54.3165 151.794 55.9389 151.309 57.5612 150.814C59.1242 150.34 60.6872 149.87 62.2404 149.375C63.8281 148.866 65.3812 148.237 66.9887 147.827C68.3984 147.466 69.7735 146.852 71.292 146.981C71.9449 147.035 72.6126 147.436 72.7313 147.936C72.85 148.445 72.4444 149.271 71.8707 149.484C70.9507 149.82 70.0059 150.077 69.0662 150.369C68.4726 150.552 67.884 150.745 67.2905 150.928C67.2954 150.963 67.3004 150.997 67.3004 151.037C67.8791 151.037 68.4528 151.057 69.0315 151.032C70.5055 150.978 72.0141 150.681 73.4386 150.913C74.5218 151.091 75.8227 151.556 76.1887 152.902C76.3618 153.545 76.4311 154.301 76.2728 154.94C76.0156 155.968 75.5605 156.953 75.1302 157.932C74.7889 158.709 74.2053 159.228 73.3298 159.391C72.7115 159.51 71.3909 158.926 71.1139 158.298C70.9111 157.838 70.733 157.343 70.6737 156.849C70.6489 156.631 70.9111 156.349 71.099 156.146C71.3068 155.914 71.5739 155.731 71.9053 155.454C71.7173 155.409 71.6481 155.375 71.5887 155.385C70.5846 155.528 69.5806 155.672 68.5765 155.825C68.156 155.889 67.7307 156.057 67.3152 156.033C66.415 155.983 65.6236 156.364 64.7877 156.567C64.4711 156.641 64.1595 156.735 63.8578 156.844C63.2543 157.061 62.6559 157.289 62.0623 157.526C61.0978 157.912 60.0492 158.179 59.1984 158.733C58.2191 159.371 57.0617 159.525 56.0873 160.128C55.3948 160.558 54.6479 160.895 53.9456 161.305C53.0899 161.805 52.1946 162.265 51.423 162.883C50.5277 163.595 49.7314 164.436 48.935 165.267C47.9408 166.301 46.9912 167.379 46.0168 168.433C45.6211 168.863 45.6755 169.363 45.9623 169.763C46.5163 170.53 47.1692 171.213 48.1832 171.366C48.2574 171.376 48.3365 171.41 48.386 171.46C49.0389 172.113 49.8699 172.355 50.7453 172.558C51.8236 172.805 52.8772 173.142 53.9406 173.443C55.3552 173.849 56.7995 174.175 58.1746 174.685C59.3617 175.125 60.5982 175.175 61.8001 175.432C62.9922 175.689 64.1793 175.857 65.3961 175.892C66.6771 175.926 67.9533 176.03 69.2343 176.119C70.4659 176.203 71.7074 176.198 72.9143 176.411C74.5218 176.693 76.1294 176.802 77.7517 176.891C79.0625 176.96 80.3732 177.148 81.679 177.326C83.148 177.524 84.6121 177.766 86.0812 177.994C87.0605 178.142 88.03 178.375 89.0143 178.429C91.2203 178.548 93.3966 179.008 95.6175 178.973C97.9818 178.939 100.346 178.973 102.71 179.018C105.282 179.067 107.854 179.132 110.422 179.26C111.767 179.329 113.102 179.537 114.438 179.7C115.383 179.819 116.327 179.977 117.272 180.096C117.673 180.146 118.083 180.131 118.484 180.165C119.701 180.259 120.922 180.338 122.139 180.467C122.678 180.526 123.203 180.492 123.732 180.487C125.364 180.467 126.996 180.665 128.634 180.739C128.91 180.754 129.197 180.571 129.499 180.472C129.519 180.67 129.544 180.892 129.583 181.273C130.103 180.333 130.884 180.68 131.547 180.61C132.813 180.482 134.079 180.368 135.35 180.279C136.374 180.21 137.398 180.195 138.422 180.141C139.881 180.066 141.335 179.992 142.795 179.903C143.813 179.844 144.832 179.784 145.846 179.676C146.479 179.606 147.093 179.418 147.721 179.315C148.517 179.186 149.314 179.062 150.115 178.998C151.599 178.879 153.088 178.761 154.576 178.716C157.762 178.622 160.952 178.578 164.137 178.493C164.672 178.479 165.201 178.36 165.73 178.296C165.829 178.281 165.938 178.246 166.027 178.281C167.051 178.662 168.07 178.246 169.089 178.226C170.464 178.202 171.844 177.994 173.199 177.747C174.198 177.564 175.163 177.183 176.147 176.896C177.032 176.639 177.923 176.411 178.798 176.124C180.139 175.679 181.454 175.16 182.8 174.734C183.749 174.433 184.743 174.264 185.698 173.963C186.949 173.567 188.191 173.127 189.418 172.667C190.758 172.167 192.084 171.633 193.404 171.094C194.527 170.629 195.645 170.149 196.753 169.645C197.891 169.125 199.048 168.631 200.131 168.017C201.516 167.231 202.827 166.316 204.182 165.48C205.651 164.58 206.893 163.422 207.976 162.112C208.668 161.276 209.277 160.341 209.766 159.371C210.103 158.704 209.875 157.902 209.445 157.314C208.48 155.988 207.234 154.959 205.785 154.183C204.79 153.649 203.811 153.085 202.782 152.63C201.986 152.278 201.13 152.066 200.299 151.799C199.641 151.581 198.989 151.344 198.321 151.166C197.534 150.958 196.728 150.805 195.932 150.626C194.918 150.399 193.904 150.171 192.885 149.949C192.811 149.934 192.727 149.934 192.648 149.929C191.361 149.835 190.075 149.736 188.789 149.642C187.968 149.583 187.147 149.454 186.331 149.469C183.185 149.518 180.04 149.578 176.894 149.711C175.662 149.766 174.465 150.107 173.342 150.666C171.73 151.467 170.083 152.194 168.48 153.015C167.432 153.555 166.383 154.128 165.433 154.826C164.731 155.345 163.727 155.221 163.138 154.405C163.079 154.321 162.762 154.292 162.703 154.361C161.907 155.236 161.15 156.151 160.344 157.017C159.434 157.996 158.484 158.931 157.554 159.886C156.268 161.206 154.898 162.458 153.721 163.872C152.687 165.119 151.347 165.93 150.11 166.895C150.095 166.904 150.08 166.924 150.065 166.934C149.615 167.315 149.259 167.77 148.606 167.928C148.117 168.052 147.746 168.571 147.266 168.794C146.054 169.358 144.822 169.882 143.571 170.357C143.081 170.545 142.518 170.52 141.998 170.639C140.999 170.866 140 171.099 139.011 171.371C137.957 171.658 136.918 172.009 135.87 172.306C135.44 172.424 134.98 172.553 134.549 172.518C133.56 172.439 132.675 172.84 131.745 173.023C130.978 173.176 130.078 173.152 129.494 173.567C128.812 174.052 128.144 173.651 127.476 173.913C126.917 174.131 126.16 173.854 125.493 173.799C125.453 173.795 125.414 173.785 125.374 173.785C124.766 173.775 124.157 173.79 123.554 173.755C123.217 173.735 122.881 173.636 122.545 173.582C122.411 173.562 122.268 173.523 122.139 173.547C121.58 173.671 121.056 173.626 120.546 173.344C120.472 173.305 120.339 173.379 120.23 173.399C120.062 173.438 119.889 173.532 119.73 173.508C118.786 173.369 117.846 173.092 116.906 173.087C116.209 173.087 115.566 172.558 114.799 172.964C114.507 173.117 113.978 172.825 113.562 172.731C113.32 172.677 113.078 172.583 112.83 172.558C111.47 172.42 110.11 172.306 108.75 172.157C108.082 172.083 107.419 171.895 106.751 171.89C106.366 171.885 105.995 171.915 105.594 171.866C104.625 171.737 103.729 171.44 102.839 171.059C102.389 170.871 101.899 170.738 101.419 170.673C100.089 170.495 98.8573 170.026 97.7048 169.373C96.394 168.636 95.113 167.844 93.8517 167.033C93.1345 166.573 92.5459 165.876 91.7891 165.534C90.602 165 89.7958 163.976 88.6334 163.398C87.5551 162.863 86.6153 162.027 85.6459 161.286C84.4588 160.375 83.2519 159.475 82.144 158.466C81.1053 157.521 80.3386 156.339 79.6065 155.123C78.7558 153.703 77.9496 152.254 76.8515 150.973C75.5704 149.479 74.4229 147.866 73.681 146.002C73.2457 144.909 72.7115 143.855 72.2317 142.777C71.747 141.694 71.2821 140.605 70.7874 139.527C70.3917 138.662 69.9515 137.821 69.5459 136.96C69.0315 135.867 68.4776 134.784 68.0472 133.661C67.7059 132.771 67.5625 131.811 67.2509 130.906C66.8651 129.768 66.4199 128.65 65.9599 127.542C65.3763 126.138 64.7333 124.758 64.1397 123.358C63.6154 122.126 63.0763 120.9 62.6163 119.643C62.275 118.723 62.0524 117.759 61.7705 116.819C61.5924 116.221 61.3748 115.637 61.2214 115.033C60.984 114.094 60.8208 113.134 60.5636 112.199C60.1481 110.701 59.7079 109.207 59.2331 107.723C58.9215 106.749 58.4961 105.809 58.1894 104.829C57.764 103.454 57.3832 102.069 57.0369 100.675C56.8787 100.051 56.8638 99.3885 56.7501 98.7554C56.295 96.2576 56.5473 93.735 56.5671 91.2273C56.5769 90.0649 56.8638 88.9075 56.9529 87.7402C56.9776 87.4137 56.8341 86.9933 56.6165 86.7559C56.1219 86.2068 55.4888 85.7765 54.9892 85.2324C54.1335 84.3075 53.3421 83.3133 53.0305 82.0669C52.9464 81.7355 53.1393 81.2755 53.3273 80.954C53.7378 80.2615 54.46 79.9944 55.2068 79.8163C55.9982 79.6284 56.7995 79.4899 57.586 79.2772C57.7393 79.2376 57.9025 78.9903 57.9421 78.8122C58.1301 77.9368 58.2883 77.0563 58.4268 76.1759C58.4763 75.8643 58.4862 75.5428 58.4614 75.2262C58.3675 74.0738 59.1638 73.4258 60.2075 73.3467C60.7614 73.3071 61.3204 73.3318 61.8743 73.3368C62.9032 73.3467 63.3285 74.0342 62.8982 74.9789C62.8586 75.063 62.7597 75.1372 62.7548 75.2213C62.6657 76.2353 62.5916 77.2492 62.5025 78.4165C63.0862 78.2781 63.6352 78.1643 64.1743 78.011C64.8223 77.8279 65.4604 77.6103 66.1034 77.4125C66.7958 77.1948 67.4883 76.9722 68.1857 76.7694C68.8782 76.5667 69.5806 76.3886 70.278 76.2006C70.9111 76.0325 71.5442 75.8791 72.1724 75.7011C72.9242 75.4884 73.6612 75.2361 74.413 75.0284C75.338 74.7761 76.2629 74.5239 77.1977 74.3161C78.0881 74.1183 78.9932 73.9748 79.8885 73.8067C80.0418 73.777 80.1951 73.7424 80.3485 73.7077C81.2091 73.5148 82.0648 73.2774 82.9403 73.1439C83.4745 73.0647 83.9939 73.0499 84.4736 72.7234C84.6616 72.5948 84.988 72.6888 85.2403 72.6393C86.1158 72.4761 86.9863 72.308 87.8519 72.115C88.3564 72.0013 88.8411 71.8133 89.3457 71.7095C89.687 71.6353 90.053 71.6699 90.3992 71.6204C90.8048 71.566 91.2054 71.4918 91.6061 71.4077C92.719 71.1753 93.8269 70.9329 94.9398 70.6955C95.3009 70.6163 95.662 70.5174 96.033 70.468C96.6908 70.3789 97.3585 70.3443 98.0164 70.2404C99.2876 70.0327 100.554 69.7706 101.825 69.5776C103.19 69.3699 104.56 69.2215 105.925 69.0237C106.643 68.9198 107.355 68.7665 108.067 68.6478C108.146 68.6329 108.235 68.6824 108.319 68.6972C108.473 68.7269 108.626 68.7912 108.774 68.7813C109.868 68.717 110.966 68.6774 112.054 68.5538C112.855 68.4647 113.646 68.262 114.448 68.1235C114.967 68.0295 115.486 67.9404 116.006 67.8811C116.886 67.7822 117.791 67.8217 118.637 67.6041C119.765 67.3123 120.898 67.4458 122.025 67.337C123.311 67.2133 124.607 67.1045 125.878 66.8721C127.615 66.5555 129.301 66.877 131.018 67.0204C132.427 67.1342 133.852 67.0699 135.261 67.1639C136.34 67.2381 137.413 67.4409 138.486 67.5794C139.129 67.6635 139.772 67.7327 140.415 67.8118C141.236 67.9108 142.063 67.98 142.874 68.1235C143.828 68.2916 144.773 68.5241 145.723 68.717C146.672 68.9099 147.622 69.1226 148.582 69.2611C149.507 69.3946 150.496 69.3056 151.366 69.5875C152.212 69.8596 153.196 69.5381 153.924 70.2207C153.933 70.2305 153.963 70.2355 153.983 70.2305C154.938 70.0475 155.764 70.5768 156.659 70.7351C157.608 70.9032 158.543 71.1852 159.488 71.383C160.096 71.5116 160.73 71.5512 161.338 71.6847C162.347 71.9024 163.366 72.12 164.35 72.4217C165.344 72.7284 166.304 73.1587 167.293 73.5C167.892 73.7077 168.52 73.8413 169.123 74.0391C170.028 74.3359 170.899 74.786 171.824 74.9492C173.125 75.1817 174.203 75.8791 175.341 76.4232C176.266 76.8684 177.067 77.5806 177.898 78.2038C178.229 78.4512 178.496 78.7826 178.808 79.0596C178.932 79.1684 179.095 79.2673 179.253 79.2871C180.03 79.386 180.826 79.381 181.583 79.5641C182.775 79.8509 183.932 80.2961 185.124 80.5929C185.792 80.7611 186.321 81.0034 186.643 81.6563C186.925 82.235 187.286 82.7791 187.592 83.3479C187.657 83.4716 187.721 83.6843 187.662 83.7683C187.202 84.4311 187.365 85.084 187.775 85.638C188.092 86.0683 187.884 86.2613 187.583 86.3948C187.024 86.6471 186.43 86.8301 185.832 87.1516C186.158 87.1516 186.485 87.1664 186.806 87.1466C187.657 87.0922 188.512 87.023 189.363 86.9686C189.611 86.9537 189.858 86.9537 190.105 86.9389C191.361 86.8597 192.613 86.7262 193.869 86.7114C196.872 86.6767 199.869 86.6718 202.871 86.7262C203.717 86.741 204.558 86.9933 205.399 87.1318C205.592 87.1615 205.8 87.1466 205.992 87.1813C206.655 87.3049 207.323 87.4236 207.981 87.5769C208.693 87.7402 209.4 87.9331 210.103 88.1309C210.414 88.22 210.716 88.3535 211.023 88.4722C213.031 89.2537 214.866 90.3221 216.617 91.5933C218.19 92.7359 219.525 94.0664 220.663 95.6195C221.059 96.1586 221.519 96.6582 221.855 97.232C222.345 98.0679 222.765 98.9483 223.185 99.8188C223.299 100.051 223.324 100.328 223.383 100.586C223.566 101.337 223.764 102.089 223.932 102.846C224.101 103.613 224.274 104.379 224.382 105.156C224.422 105.423 224.224 105.715 224.219 105.992C224.199 107.852 224.199 109.706 224.195 111.566C224.195 112.001 224.204 112.437 224.175 112.872C224.101 113.965 224.091 115.073 223.893 116.146C223.73 117.027 223.616 117.957 223.017 118.718C222.864 118.916 222.904 119.253 222.829 119.515C222.74 119.811 222.602 120.093 222.518 120.39C222.468 120.553 222.488 120.736 222.468 120.905C222.453 121.013 222.449 121.142 222.389 121.226C222.127 121.617 221.781 121.968 221.593 122.388C221.182 123.338 220.663 124.189 219.926 124.931C218.843 126.029 217.868 127.236 216.755 128.299C216.172 128.858 215.41 129.249 214.688 129.635C213.466 130.288 212.21 130.881 210.963 131.49C209.613 132.147 208.258 132.785 206.907 133.443C205.211 134.274 203.539 135.165 201.818 135.936C200.487 136.53 199.078 136.955 197.727 137.514C196.985 137.821 196.293 138.256 195.576 138.627C195.056 138.899 194.522 139.141 194.008 139.428C193.77 139.562 193.597 139.804 193.36 139.938C193.083 140.091 192.761 140.145 192.474 140.289C191.253 140.897 190.075 141.609 188.809 142.109C187.617 142.584 186.588 143.286 185.52 143.949C185.283 144.097 185.045 144.29 184.892 144.518C184.175 145.591 183.734 145.73 182.498 145.423C181.865 145.265 181.217 145.23 180.722 144.721C180.153 144.132 180.074 144.013 179.99 143.153C179.436 143.242 178.887 143.341 178.338 143.425C177.448 143.558 176.622 143.89 175.657 143.855C174.658 143.82 173.644 144.256 172.64 144.498C172.14 144.617 171.636 144.74 171.151 144.904C170.241 145.21 169.326 145.497 168.456 145.893C168.193 146.012 168.085 146.452 167.897 146.739C167.669 147.085 167.437 147.431 167.204 147.772C167.011 148.054 166.818 148.331 166.625 148.608C166.67 148.668 166.719 148.727 166.764 148.786C167.145 148.648 167.521 148.505 167.907 148.376C168.124 148.302 168.347 148.247 168.574 148.203C169.252 148.074 169.934 147.936 170.617 147.847C172.591 147.585 174.213 146.308 176.127 145.923C177.057 145.735 178.061 145.888 179.075 145.888C179.095 146.091 179.11 146.298 179.144 146.635C179.792 146.566 180.44 146.491 181.088 146.417C181.167 146.407 181.237 146.368 181.316 146.363C182.706 146.259 184.091 146.15 185.48 146.061C186.648 145.987 187.815 145.903 188.982 145.903C189.972 145.908 190.961 146.002 191.94 146.111C193.083 146.234 194.225 146.383 195.358 146.58C196.229 146.734 197.084 146.991 197.945 147.204C198.642 147.377 199.345 147.54 200.042 147.723C200.695 147.896 201.358 148.045 201.981 148.287C203.5 148.866 205.018 149.454 206.502 150.122C207.239 150.453 207.877 150.997 208.594 151.383C210.123 152.209 211.265 153.48 212.413 154.717C213.07 155.424 213.427 156.369 213.733 157.338C214.025 158.258 213.788 159.089 213.644 159.91C213.521 160.647 213.145 161.424 212.655 161.998C211.453 163.412 210.202 164.812 208.822 166.049C207.758 166.998 206.477 167.711 205.275 168.502C204.375 169.101 203.47 169.694 202.525 170.223C201.635 170.723 200.646 171.054 199.795 171.603C198.667 172.33 197.416 172.741 196.209 173.27C195.037 173.785 193.82 174.21 192.652 174.734C191.599 175.209 190.585 175.783 189.541 176.282C189.235 176.431 188.878 176.48 188.547 176.569C187.311 176.911 186.054 177.202 184.837 177.608C183.759 177.969 182.73 178.474 181.672 178.879C181.251 179.042 180.791 179.092 180.356 179.226C179.04 179.626 177.73 180.037 176.419 180.452C176.142 180.541 175.885 180.685 175.603 180.764C175.128 180.902 174.648 181.031 174.163 181.135C173.164 181.357 172.16 181.565 171.156 181.778C171.023 181.807 170.884 181.842 170.751 181.852C168.515 181.941 166.279 182.025 164.044 182.109C161.753 182.193 159.463 182.272 157.178 182.366C155.867 182.421 154.552 182.445 153.251 182.589C151.777 182.752 150.318 183.029 148.854 183.257C148.814 183.262 148.775 183.276 148.735 183.276C147.716 183.356 146.697 183.45 145.678 183.514C144.001 183.613 142.32 183.662 140.648 183.781C139.085 183.895 137.532 184.098 135.974 184.216C135.163 184.281 134.341 184.201 133.535 184.271C132.516 184.36 131.507 184.553 130.488 184.666C130.295 184.686 130.083 184.508 129.885 184.513C128.836 184.548 127.783 184.612 126.734 184.666C126.635 184.671 126.536 184.691 126.437 184.686C125.547 184.617 124.657 184.528 123.761 184.468C122.584 184.384 121.372 184.473 120.245 184.206C119.246 183.969 118.261 184.152 117.292 183.984C116.159 183.791 115.041 183.544 113.914 183.341C113.34 183.237 112.756 183.182 112.177 183.084C111.96 183.044 111.757 182.945 111.544 182.876C111.455 182.846 111.356 182.816 111.262 182.821C110.224 182.891 109.19 182.965 108.151 183.034C107.978 183.044 107.805 183.064 107.582 183.084C107.652 183.163 107.681 183.232 107.716 183.232C108.755 183.336 109.803 183.38 110.832 183.544C111.881 183.707 112.914 183.979 113.953 184.201C114.73 184.37 115.516 184.503 116.278 184.711C117.124 184.938 117.955 185.225 118.781 185.507C120.329 186.032 121.857 186.61 123.42 187.085C124.479 187.407 125.572 187.624 126.66 187.837C127.956 188.094 129.257 188.312 130.563 188.524C131.725 188.712 132.902 188.806 134.05 189.039C136.038 189.444 138.046 189.524 140.054 189.454C141.227 189.415 142.399 189.192 143.566 189.049C144.318 188.955 145.08 188.881 145.827 188.747C146.796 188.574 147.761 188.336 148.725 188.144C149.338 188.02 149.957 187.946 150.57 187.822C151.579 187.614 152.583 187.367 153.592 187.159C153.919 187.095 154.26 187.11 154.596 187.085C155.872 187.001 157.153 186.951 158.43 186.833C159.81 186.704 161.185 186.516 162.565 186.358C163.326 186.274 164.088 186.205 164.85 186.121C165.003 186.106 165.151 186.046 165.305 186.022C165.75 185.952 166.076 185.557 166.665 185.819C167.085 186.002 167.704 185.71 168.238 185.661C169.143 185.576 170.048 185.527 170.953 185.433C172.081 185.314 173.209 185.156 174.337 185.027C174.708 184.983 175.093 185.018 175.454 184.938C176.849 184.617 178.234 184.276 179.619 183.915C180.351 183.727 181.068 183.489 181.796 183.276C182.824 182.975 183.848 182.668 184.882 182.381C185.851 182.114 186.826 181.872 187.795 181.61C187.993 181.555 188.176 181.451 188.374 181.377C189.635 180.897 190.911 180.457 192.158 179.943C194.497 178.968 196.827 177.969 199.147 176.94C200.735 176.233 202.303 175.481 203.861 174.705C205.359 173.958 206.828 173.147 208.317 172.38C209.573 171.732 210.82 171.059 212.106 170.476C213.006 170.065 213.966 169.793 214.891 169.442C215.054 169.378 215.192 169.244 215.366 169.13C214.569 168.754 213.852 167.81 214.391 166.736C214.638 166.247 215.014 166.049 215.524 166.242C215.613 166.276 215.702 166.331 215.796 166.336C216.795 166.425 217.799 166.519 218.798 166.588C220.242 166.682 221.687 166.731 223.126 166.845C223.566 166.88 223.794 167.261 223.977 167.646C223.126 168.012 223.111 168.2 223.571 169.234C223.774 169.694 223.853 170.218 223.932 170.723C223.952 170.842 223.774 171.044 223.641 171.133C222.721 171.752 221.618 171.806 220.599 172.118C219.392 172.489 218.219 172.954 217.027 173.374C216.409 173.592 215.781 173.795 215.163 174.007C214.93 174.086 214.698 174.166 214.48 174.279C213.629 174.729 212.789 175.204 211.933 175.644C210.315 176.485 208.698 177.331 207.061 178.132C205.76 178.77 204.429 179.344 203.114 179.948C201.645 180.625 200.181 181.308 198.712 181.985C197.46 182.564 196.224 183.187 194.943 183.687C193.523 184.246 192.014 184.602 190.62 185.215C189.65 185.646 188.582 185.715 187.662 186.19C186.618 186.734 185.471 186.783 184.382 187.115C182.992 187.535 181.528 187.773 180.213 188.356C179.184 188.811 178.125 188.742 177.102 189.009C176.34 189.212 175.568 189.415 174.787 189.469C172.843 189.608 170.879 189.558 168.95 189.801C167.991 189.919 166.987 189.904 166.027 190.335C165.404 190.612 164.583 190.439 163.846 190.483C162.664 190.552 161.462 190.513 160.309 190.74C158.781 191.042 157.238 191.032 155.714 191.225C154.502 191.378 153.196 191.299 152.098 192.041C152.029 192.091 151.905 192.056 151.812 192.071C150.852 192.229 149.897 192.397 148.943 192.551C148.344 192.645 147.741 192.699 147.142 192.813C146 193.03 144.867 193.288 143.729 193.5C143.403 193.56 143.057 193.52 142.72 193.535C140.747 193.614 138.768 193.758 136.795 193.758C135.885 193.758 134.975 193.485 134.064 193.342C133.891 193.312 133.708 193.332 133.53 193.307C132.546 193.164 131.562 193.016 130.582 192.872C130.028 192.788 129.474 192.714 128.92 192.62C128.089 192.471 127.263 192.303 126.432 192.16C125.799 192.051 125.146 192.011 124.523 191.868C123.747 191.685 122.98 191.438 122.218 191.205C121.145 190.879 120.067 190.552 119.003 190.201C118.652 190.087 118.335 189.855 117.979 189.746C117.109 189.484 116.223 189.271 115.343 189.024C114.26 188.717 113.196 188.272 112.093 188.109C110.624 187.891 109.126 187.886 107.637 187.802C106.727 187.748 105.812 187.679 104.902 187.684C103.329 187.698 101.756 187.792 100.188 187.812C98.1203 187.842 96.0478 187.862 93.9803 187.822C92.536 187.792 91.0966 187.688 89.6573 187.56C88.7125 187.476 87.7876 187.243 86.8429 187.159C85.9031 187.08 84.9485 187.115 84.0037 187.075C83.702 187.06 83.4102 186.956 83.1134 186.887C82.4407 186.724 81.7433 186.63 81.1053 186.378C79.9528 185.928 78.6668 186.076 77.5291 185.517C77.0592 185.285 76.4657 185.304 75.9315 185.196C75.6743 185.141 75.422 185.042 75.1648 184.978C74.4922 184.81 73.8145 184.676 73.1517 184.473C72.4494 184.261 71.7767 183.964 71.0793 183.736C70.3077 183.489 69.5163 183.286 68.7397 183.049C68.1412 182.866 67.5576 182.648 66.9591 182.47C66.4644 182.327 65.9599 182.228 65.4604 182.104C64.946 181.976 64.4315 181.832 63.9171 181.699C63.7836 181.664 63.65 181.649 63.5165 181.629C62.9823 181.54 62.4481 181.471 61.9189 181.362C61.2214 181.224 60.529 181.07 59.8414 180.897C59.1935 180.729 58.5554 180.536 57.9124 180.333C57.032 180.056 56.1516 179.77 55.2711 179.483C54.7419 179.31 54.2176 179.117 53.6834 178.958C52.8673 178.721 52.0264 178.538 51.2202 178.271C50.3348 177.974 49.4742 177.588 48.5987 177.262C47.5451 176.871 46.4866 176.48 45.4183 176.134C44.8148 175.941 44.1916 175.808 43.5634 175.699C43.2469 175.644 42.9056 175.738 42.5841 175.689C41.6047 175.541 40.6155 175.427 39.6658 175.175C38.4738 174.858 37.2718 174.487 36.4804 173.424C36.3419 173.241 36.3024 172.978 36.2331 172.751C36.149 172.454 36.0749 172.157 36.0105 171.856C35.8176 170.931 36.1738 170.298 37.0789 169.946C37.4598 169.798 37.7961 169.749 38.2215 169.932C38.9387 170.233 39.7054 170.426 40.4621 170.634C40.6996 170.698 40.9617 170.664 41.2189 170.678C41.0557 170.095 40.843 169.59 40.7837 169.066C40.6699 168.037 41.1892 167.132 41.5998 166.256C42.5643 164.199 44.1273 162.577 45.72 160.994C45.9525 160.766 46.2937 160.647 46.6598 160.435C46.6301 159.812 47.2731 159.589 47.7183 159.238C48.7372 158.446 49.766 157.655 50.8542 156.963C51.5763 156.503 52.4023 156.216 53.1838 155.85C53.164 155.785 53.1443 155.726 53.1245 155.662C52.7486 155.736 52.3677 155.78 52.0017 155.894C51.2004 156.141 50.409 156.433 49.6077 156.695C49.2961 156.799 48.9795 156.878 48.663 156.953C47.7875 157.165 46.8477 158.392 46.0316 157.581M211.092 95.0111L211.112 95.0309C211.433 94.4027 211.888 95.2535 212.413 94.8232C211.661 94.5412 211.023 94.3088 210.39 94.0615C210.256 94.007 210.137 93.9081 210.014 93.8339C209.742 93.6707 209.48 93.4976 209.198 93.3591C209.084 93.2997 208.921 93.3393 208.792 93.2948C207.917 93.0128 207.056 92.6221 206.161 92.4539C205.033 92.2462 203.87 92.2313 202.728 92.1176C202.446 92.0879 202.169 91.9989 201.887 91.9593C201.303 91.8752 200.69 91.6477 200.141 91.7614C199.285 91.9346 198.489 91.9296 197.653 91.7169C197.381 91.6477 197.069 91.7417 196.773 91.7466C196.288 91.7565 195.803 91.7318 195.318 91.7614C194.854 91.7911 194.285 91.7219 193.968 91.9642C193.676 92.1868 193.503 92.1176 193.256 92.0879C192.86 92.0483 192.469 91.9939 192.074 91.9642C191.861 91.9494 191.648 91.9544 191.436 91.9593C190.62 91.9791 189.798 91.9593 188.987 92.0335C188.517 92.078 188.057 92.266 187.597 92.3946C187.266 92.4885 186.935 92.5825 186.603 92.6913C186.485 92.7309 186.386 92.8496 186.267 92.8645C185.594 92.9584 184.917 93.0178 184.239 93.1118C183.789 93.1761 183.339 93.2404 182.903 93.364C182.735 93.4135 182.542 93.6014 182.478 93.7696C182.354 94.0961 182.251 94.4571 182.246 94.8034C182.226 96.1933 182.241 97.5832 182.251 98.973C182.251 99.161 182.34 99.344 182.33 99.532C182.29 100.472 182.231 101.412 182.176 102.455C182.706 102.149 183.067 101.862 183.482 101.708C184.664 101.268 185.896 100.956 187.048 100.457C188.329 99.898 189.665 99.5765 191.02 99.3489C192.445 99.1115 193.894 98.9335 195.338 98.8791C197.376 98.8049 199.424 98.7702 201.432 99.2896C202.233 99.4973 203.084 99.5369 203.861 99.7941C204.944 100.155 206.012 100.59 207.026 101.115C208.317 101.782 209.405 102.727 210.34 103.855C211.132 104.815 211.878 105.809 212.279 106.986C212.606 107.941 212.813 108.945 212.996 109.944C213.125 110.636 213.278 111.388 213.135 112.051C213.011 112.62 213.298 112.738 213.6 112.877C214.272 113.184 214.371 113.47 214.06 114.099C213.516 115.207 212.591 115.978 211.686 116.725C210.637 117.591 209.46 118.298 208.451 118.995C208.871 119.223 209.41 119.51 209.949 119.811C210.395 120.059 210.414 120.435 210.088 120.751C209.232 121.582 208.367 122.408 207.447 123.165C206.438 123.991 205.374 124.758 204.311 125.514C203.351 126.197 202.387 126.88 201.373 127.483C200.294 128.121 199.147 128.64 198.054 129.254C197.099 129.788 196.184 130.391 195.244 130.95C194.176 131.583 193.112 132.217 192.024 132.81C191.302 133.206 190.56 133.582 189.789 133.864C189.081 134.126 188.325 134.259 187.583 134.423C187.108 134.526 186.618 134.556 186.143 134.66C185.302 134.848 184.476 135.1 183.631 135.278C183.032 135.407 182.414 135.446 181.805 135.545C181.429 135.605 181.063 135.758 180.688 135.778C179.896 135.822 179.1 135.778 178.303 135.817C177.388 135.857 176.473 135.961 175.553 136.005C175.276 136.02 174.975 135.961 174.722 135.852C174.035 135.565 173.58 135.066 173.486 134.24C172.996 136.263 172.284 138.172 171.211 140.061C171.478 140.037 171.631 140.046 171.765 140.007C172.16 139.883 172.541 139.69 172.947 139.611C173.941 139.423 174.94 139.285 175.939 139.131C177.052 138.963 178.155 138.746 179.273 138.642C180.539 138.528 181.702 138.053 182.849 137.618C184.269 137.079 185.594 136.287 186.984 135.654C187.686 135.333 188.423 135.031 189.175 134.863C190.239 134.62 191.337 134.541 192.41 134.329C193.093 134.195 193.755 133.963 194.418 133.75C194.992 133.567 195.536 133.255 196.12 133.161C197.277 132.973 198.177 132.316 199.097 131.692C200.082 131.02 201.031 130.293 201.991 129.58C203.49 128.472 205.003 127.389 206.472 126.242C209.138 124.164 211.557 121.81 213.803 119.292C215.43 117.467 216.894 115.488 218.398 113.555C218.739 113.119 219.149 112.595 219.184 112.085C219.318 110.231 219.362 108.366 219.332 106.506C219.318 105.418 219.139 104.32 218.952 103.242C218.843 102.633 218.62 102.025 218.358 101.461C218.061 100.823 217.715 100.195 217.295 99.6358C216.548 98.6367 215.791 97.6277 214.93 96.7324C213.896 95.6838 212.418 95.486 211.092 95.0111ZM62.5025 90.9701C62.5767 90.8464 62.6509 90.7178 62.7597 90.5348C62.3789 90.3221 62.0128 90.1242 61.543 89.8621C61.543 90.3518 61.5083 90.6881 61.5578 91.0096C61.5776 91.1531 61.7705 91.2718 61.8793 91.4004C61.4242 91.9593 61.3451 92.6122 61.3006 93.3096C61.1819 95.2584 61.6468 97.1479 61.8249 99.0621C61.8298 99.1214 61.8595 99.1758 61.8743 99.2302C62.0722 99.9277 62.2651 100.63 62.4728 101.327C62.7498 102.262 63.0219 103.202 63.3384 104.127C63.5907 104.874 63.9171 105.591 64.1842 106.333C64.4563 107.09 64.7036 107.856 64.9311 108.623C65.1735 109.439 65.3961 110.265 65.6087 111.096C65.8313 111.957 66.0044 112.827 66.2517 113.678C66.4694 114.43 66.781 115.157 67.0184 115.904C67.3696 117.007 67.6169 118.15 68.0571 119.213C68.7496 120.885 69.5608 122.502 70.3274 124.144C70.4956 124.51 70.6836 124.867 70.8369 125.237C71.3018 126.37 71.7717 127.498 72.2021 128.64C72.5631 129.595 72.8401 130.579 73.2061 131.534C73.7206 132.894 74.2448 134.249 74.8285 135.58C75.1797 136.381 75.7089 137.103 76.0651 137.905C76.624 139.166 77.0642 140.477 77.633 141.738C78.3255 143.266 79.1762 144.691 80.3089 145.967C81.1745 146.941 81.8769 148.064 82.6237 149.138C83.1876 149.944 83.702 150.78 84.2461 151.601C84.7704 152.387 85.2403 153.213 85.8388 153.945C87.016 155.39 88.8065 156.067 90.1915 157.259C90.8196 157.803 91.7297 158.075 92.2194 158.704C92.8872 159.554 94.1287 159.569 94.6183 160.573C94.6233 160.583 94.6579 160.583 94.6727 160.593C95.0833 160.855 95.4938 161.112 95.8945 161.38C96.8392 162.008 97.7394 162.71 98.7336 163.254C99.7822 163.833 100.9 164.293 102.013 164.743C102.399 164.901 102.869 164.832 103.279 164.946C104.293 165.233 105.292 165.569 106.301 165.871C107.681 166.286 109.076 166.637 110.54 166.568C110.773 166.558 111.015 166.588 111.248 166.632C111.851 166.756 112.44 166.944 113.048 167.018C114.012 167.137 114.992 167.191 115.961 167.266C116.367 167.295 116.777 167.29 117.183 167.34C117.485 167.374 117.777 167.513 118.073 167.533C118.756 167.572 119.443 167.567 120.131 167.587C120.21 167.587 120.284 167.612 120.363 167.627C120.957 167.745 121.565 167.988 122.149 167.953C123.222 167.884 124.281 168.448 125.354 168.017C125.433 167.988 125.547 168.037 125.641 168.057C125.933 168.111 126.23 168.225 126.521 168.21C127.056 168.186 127.585 168.097 128.114 168.012C128.361 167.973 128.624 167.795 128.841 167.844C129.613 168.012 130.295 167.711 131.008 167.547C131.532 167.429 132.056 167.31 132.59 167.221C133.199 167.122 133.822 167.097 134.426 166.964C135.632 166.697 136.824 166.365 138.031 166.088C138.61 165.955 139.213 165.915 139.787 165.772C140.806 165.515 141.795 165.094 142.829 164.946C144.006 164.778 145.015 164.229 145.921 163.615C147.325 162.666 148.715 161.661 149.897 160.39C151.431 158.728 153.093 157.19 154.685 155.578C156.233 154.01 157.732 152.392 159.3 150.844C160.819 149.34 161.669 147.392 162.881 145.685C163.574 144.711 164.029 143.568 164.667 142.554C165.888 140.605 166.897 138.553 167.817 136.456C168.179 135.629 168.406 134.739 168.653 133.864C168.866 133.112 168.925 132.306 169.217 131.588C169.563 130.733 169.831 129.887 169.85 128.962C169.855 128.749 169.989 128.542 170.038 128.324C170.206 127.617 170.37 126.909 170.528 126.197C170.573 126.004 170.548 125.787 170.627 125.613C170.795 125.267 171.122 124.975 170.83 124.54C170.805 124.5 170.879 124.347 170.943 124.308C171.364 124.05 171.493 123.714 171.29 123.249C171.245 123.15 171.265 123.007 171.3 122.898C171.537 122.136 171.794 121.374 172.032 120.613C172.497 119.129 172.971 117.65 173.407 116.156C173.708 115.127 173.916 114.069 174.218 113.04C174.668 111.497 175.311 110.023 175.979 108.559C176.231 108.015 176.577 107.495 176.736 106.927C176.988 106.026 177.166 105.101 177.285 104.176C177.468 102.737 177.616 101.293 177.695 99.8436C177.735 99.1709 177.517 98.4834 177.532 97.8057C177.576 96.035 177.24 94.2642 177.507 92.4935C177.532 92.3402 177.458 92.172 177.487 92.0236C177.542 91.7169 177.611 91.4103 177.725 91.1234C177.804 90.9305 177.972 90.7722 178.101 90.5991C178.071 90.5595 178.036 90.5199 178.007 90.4804C177.898 90.5397 177.774 90.5842 177.685 90.6683C176.874 91.4103 176.053 92.1473 175.262 92.9139C174 94.1307 172.507 95.0012 170.953 95.7679C170.167 96.1537 169.331 96.4406 168.51 96.7522C167.273 97.2171 166.052 97.7216 164.785 98.0976C163.43 98.5031 162.04 98.795 160.66 99.0967C159.478 99.3589 158.276 99.5369 157.094 99.7991C156.293 99.9771 155.511 100.249 154.715 100.447C153.904 100.65 153.088 100.823 152.272 100.991C151.678 101.115 151.07 101.159 150.491 101.318C149.269 101.654 148.067 102.084 146.841 102.401C145.683 102.702 144.506 102.96 143.324 103.143C141.944 103.355 140.544 103.464 139.154 103.618C138.981 103.637 138.808 103.662 138.63 103.677C138.318 103.707 138.007 103.746 137.695 103.756C137.552 103.761 137.403 103.672 137.26 103.682C136.913 103.712 136.562 103.845 136.221 103.82C134.782 103.697 133.342 103.529 131.903 103.385C130.929 103.291 129.954 103.217 128.98 103.128C128.124 103.049 127.273 102.965 126.418 102.881C126.358 102.876 126.289 102.876 126.244 102.846C125.493 102.302 124.563 102.435 123.732 102.188C123.178 102.02 122.56 102.055 122.001 101.896C121.051 101.634 120.136 101.238 119.181 100.996C117.737 100.63 116.273 100.343 114.814 100.027C114.463 99.9475 114.111 99.8485 113.755 99.7941C113.063 99.6903 112.36 99.6161 111.663 99.5171C111.218 99.4528 110.743 99.4479 110.347 99.2748C109.556 98.9236 108.745 98.8148 107.899 98.8296C107.602 98.8345 107.305 98.8098 107.014 98.7653C106.227 98.6416 105.451 98.4735 104.664 98.3647C103.813 98.2459 102.958 98.1816 102.107 98.0877C102.038 98.0778 101.968 98.0234 101.904 97.9887C101.078 97.509 100.188 97.321 99.2381 97.4051C99.06 97.4199 98.877 97.4199 98.7039 97.3952C97.774 97.2468 96.8441 97.0885 95.9192 96.9303C95.6323 96.8808 95.3504 96.8016 95.0635 96.7423C94.6134 96.6483 94.1633 96.5247 93.7082 96.4653C92.8723 96.3565 92.0315 96.2971 91.1906 96.1933C90.696 96.1339 90.2014 96.035 89.7067 95.9558C88.2575 95.7184 86.8132 95.486 85.3689 95.2436C85.1265 95.204 84.8941 95.1249 84.6517 95.0804C84.0631 94.9666 83.4745 94.8281 82.881 94.7589C81.9708 94.6599 81.0558 94.6105 80.1457 94.5412C80.0715 94.5363 80.0022 94.4918 79.9231 94.4769C79.2801 94.3483 78.642 94.2049 77.9941 94.0961C77.267 93.9774 76.53 93.9081 75.8029 93.7795C75.1451 93.6608 74.502 93.463 73.8442 93.3442C72.8995 93.1711 71.9399 93.0574 71.0001 92.8694C70.1147 92.6913 69.2492 92.3253 68.3588 92.2561C67.2014 92.1621 66.227 91.5587 65.1438 91.3212C64.2683 91.1234 63.467 90.3271 62.5025 90.9701ZM165.517 92.5479C165.517 92.355 165.592 92.1176 165.508 91.9692C164.973 91.0739 165.483 90.5298 166.111 89.9907C167.066 89.1746 168.233 88.8828 169.405 88.586C170.662 88.2645 171.923 87.9726 173.154 87.5819C173.61 87.4385 174.248 87.5225 174.465 86.8845C174.549 86.6372 174.727 86.3997 174.742 86.1524C174.792 85.4006 175.42 84.7477 175.113 83.9365C175.079 83.8475 175.113 83.6546 175.182 83.6101C175.741 83.2342 175.534 82.7742 175.286 82.3686C175.034 81.958 174.752 81.5178 174.376 81.2408C173.931 80.9144 173.367 80.7561 172.858 80.5236C172.477 80.3505 172.076 79.9993 171.72 80.0438C170.612 80.1823 169.845 79.3316 168.812 79.1832C167.679 79.02 166.625 78.3572 165.532 77.912C165.112 77.7389 164.701 77.5213 164.261 77.4125C163.405 77.1998 162.53 77.0761 161.674 76.8684C160.497 76.5815 159.335 76.2353 158.158 75.9533C157.322 75.7555 156.476 75.617 155.63 75.4686C155.056 75.3697 154.423 75.4092 153.909 75.1817C152.806 74.6871 151.638 74.6574 150.486 74.4892C149.828 74.3903 149.165 74.3211 148.507 74.2271C148.082 74.1677 147.662 74.0837 147.236 74.0095C146.405 73.8611 145.569 73.7127 144.738 73.5692C144.165 73.4703 143.586 73.3862 143.007 73.2873C142.592 73.2181 142.176 73.1389 141.761 73.0499C141.088 72.9065 140.42 72.6295 139.753 72.6344C138.907 72.6394 138.066 72.2634 137.22 72.5998C137.121 72.6394 136.983 72.5998 136.864 72.5849C136.404 72.5157 135.944 72.4217 135.484 72.3723C134.945 72.3129 134.43 72.2288 133.862 72.3178C133.194 72.4217 132.482 72.1596 131.784 72.1447C130.216 72.1052 128.643 72.0854 127.071 72.125C125.463 72.1645 123.851 72.2733 122.248 72.392C121.837 72.4217 121.447 72.6789 121.021 72.4267C120.947 72.3821 120.799 72.4662 120.685 72.4959C120.235 72.6047 119.711 72.9213 119.359 72.7828C118.766 72.5553 118.335 72.9262 117.831 72.951C117.129 72.9806 116.441 73.2329 115.739 73.312C114.987 73.3961 114.22 73.3615 113.463 73.4258C111.999 73.5495 110.54 73.6978 109.081 73.8512C108.799 73.8809 108.522 73.9847 108.24 74.0243C107.666 74.1084 107.098 74.1826 106.519 74.237C105.94 74.2963 105.352 74.2815 104.783 74.3854C103.838 74.5535 102.918 74.8503 101.968 74.974C100.776 75.1322 99.5646 75.1768 98.3626 75.2707C98.3033 75.2757 98.2439 75.2905 98.1846 75.3004C96.7007 75.5181 95.2168 75.7357 93.728 75.9533C93.5895 75.9731 93.4461 75.9632 93.3175 75.9978C92.8031 76.1363 92.2936 76.3144 91.7743 76.4232C91.2054 76.5469 90.6218 76.5864 90.053 76.7002C89.0044 76.9129 87.9607 77.1651 86.9121 77.3877C86.3581 77.5015 85.7893 77.5559 85.2403 77.6895C84.4588 77.8774 83.6921 78.1297 82.9156 78.3275C82.3022 78.4858 81.684 78.6144 81.0706 78.7578C80.2693 78.9408 79.4631 79.1189 78.6569 79.297C78.276 79.3811 77.8952 79.4503 77.5192 79.5492C76.9306 79.7026 76.347 79.8707 75.7584 80.034C75.061 80.2269 74.3685 80.4247 73.6711 80.6176C72.7115 80.8896 71.752 81.1666 70.7874 81.4288C70.3423 81.5525 69.8526 81.5623 69.447 81.7602C68.0769 82.4329 66.6029 82.7296 65.1487 83.1105C64.5651 83.2638 63.8973 83.2144 63.4324 83.7288C63.373 83.798 63.2247 83.7931 63.1109 83.803C62.6064 83.8623 62.0969 83.9167 61.5924 83.9711C61.5875 83.9464 61.5825 84.0008 61.6023 84.0157C62.8735 84.7428 64.1397 85.4649 65.4158 86.1772C65.7027 86.3355 66.0143 86.4393 66.321 86.563C67.0085 86.84 67.6862 87.1714 68.3984 87.3741C69.2393 87.6116 70.1147 87.7253 70.9754 87.9034C72.0438 88.121 73.1072 88.3535 74.1756 88.5761C74.6702 88.6799 75.1698 88.7789 75.6644 88.8926C76.5448 89.0905 77.4154 89.3576 78.3106 89.4911C79.3345 89.6445 80.3732 89.689 81.402 89.783C81.4614 89.7879 81.5207 89.7978 81.5801 89.8077C82.6139 89.961 83.6427 90.1144 84.6764 90.2627C85.3491 90.3567 86.0267 90.421 86.6994 90.52C87.1545 90.5843 87.6095 90.6881 88.0646 90.7722C88.856 90.9206 89.6424 91.0937 90.4388 91.2174C91.5665 91.3905 92.6992 91.5191 93.822 91.6873C94.7618 91.8307 95.6966 91.9989 96.6265 92.167C96.9233 92.2214 97.2151 92.3154 97.5069 92.3847C97.8729 92.4688 98.239 92.5776 98.6149 92.627C99.5448 92.7408 100.48 92.7903 101.405 92.9386C102.414 93.1019 103.398 93.3937 104.407 93.552C105.376 93.7053 106.366 93.7498 107.345 93.8587C107.756 93.9032 108.166 93.9675 108.567 94.0515C109.739 94.289 110.901 94.5857 112.079 94.7786C113.275 94.9765 114.472 95.0754 115.655 95.4513C117.183 95.9361 118.8 96.1389 120.378 96.4653C120.759 96.5444 121.135 96.6384 121.516 96.7077C122.05 96.8016 122.594 96.8511 123.123 96.9748C124.266 97.2518 125.389 97.6277 126.541 97.8601C128.02 98.1619 129.519 98.3943 131.013 98.5971C132.427 98.79 133.852 99.0077 135.276 99.0423C136.691 99.0769 138.106 98.8988 139.525 98.8148C139.584 98.8098 139.644 98.795 139.698 98.7851C140.717 98.5724 141.736 98.3449 142.76 98.147C143.309 98.0382 143.878 97.9937 144.422 97.875C144.867 97.7761 145.297 97.598 145.738 97.4644C146.326 97.2864 146.915 97.0836 147.513 96.955C148.775 96.6829 150.046 96.4703 151.312 96.2081C152.37 95.9855 153.419 95.7234 154.478 95.486C154.873 95.3969 155.338 95.4217 155.655 95.2189C156.13 94.9122 156.624 94.8726 157.139 94.7885C157.96 94.655 158.771 94.4819 159.587 94.3186C159.958 94.2445 160.329 94.1505 160.7 94.0812C161.219 93.9823 161.758 93.9576 162.248 93.7894C163.371 93.4036 164.434 92.9634 165.517 92.5479ZM181.855 106.041C181.637 106.62 181.415 107.075 181.291 107.555C181.059 108.465 181.123 109.424 180.574 110.29C180.124 110.997 179.931 111.858 179.609 112.649C179.392 113.184 179.09 113.698 178.942 114.247C178.709 115.122 178.744 116.112 178.358 116.898C177.72 118.189 177.626 119.594 177.22 120.924C177.027 121.562 176.849 122.205 176.651 122.839C176.374 123.734 176.068 124.619 175.801 125.514C175.598 126.202 175.449 126.909 175.247 127.602C175.148 127.943 174.97 128.26 174.826 128.586C174.772 128.715 174.717 128.843 174.663 128.972C174.802 129.021 174.945 129.125 175.083 129.12C177.23 129.051 179.372 128.967 181.519 128.883C181.558 128.883 181.603 128.883 181.637 128.873C182.899 128.398 184.269 128.22 185.431 127.463C185.866 127.176 186.351 126.959 186.831 126.741C187.711 126.336 188.587 125.92 189.487 125.569C190.026 125.356 190.184 125.015 190.095 124.481C189.957 123.67 190.308 123.086 191.005 122.73C191.579 122.438 192.183 122.215 192.776 121.973C193.31 121.75 193.859 121.562 194.389 121.315C195.576 120.761 196.738 120.158 197.93 119.619C199.765 118.793 201.65 118.07 203.45 117.17C204.434 116.676 205.433 116.042 206.146 115.226C206.873 114.395 207.689 113.545 208.006 112.412C208.139 111.937 208.352 111.457 208.352 110.982C208.352 110.518 208.08 110.062 208.01 109.588C207.798 108.158 206.977 107.119 205.943 106.19C205.27 105.586 204.434 105.309 203.648 104.923C202.688 104.453 201.655 104.28 200.695 104.176C198.944 103.993 197.154 103.904 195.378 104.092C194.794 104.152 194.176 104.201 193.622 104.068C193.009 103.919 192.732 104.641 192.034 104.429C191.52 104.27 190.822 104.691 190.209 104.859C189.714 104.993 189.22 105.131 188.725 105.279C188.161 105.448 187.592 105.611 187.043 105.814C186.796 105.908 186.593 106.12 186.346 106.229C186.084 106.343 185.787 106.373 185.52 106.472C184.526 106.828 183.542 106.808 182.572 106.392C182.345 106.293 182.132 106.175 181.855 106.041ZM104.763 183.049C104.763 182.985 104.768 182.92 104.768 182.856C104.679 182.836 104.59 182.807 104.501 182.807C101.37 182.727 98.2439 182.648 95.113 182.579C94.2226 182.559 93.3274 182.604 92.442 182.53C91.2549 182.426 90.0777 182.213 88.8956 182.075C87.9756 181.966 87.0259 182.015 86.1405 181.788C85.3887 181.595 84.6566 181.402 83.8702 181.342C82.9799 181.278 82.0945 181.07 81.2091 180.922C80.5562 180.813 79.9033 180.699 79.2554 180.591C79.2257 180.685 79.1911 180.784 79.1614 180.878C79.3345 180.957 79.4977 181.065 79.6807 181.11C80.21 181.234 80.7491 181.323 81.2784 181.441C82.1539 181.639 83.0194 181.872 83.8949 182.06C84.4835 182.183 85.082 182.277 85.6805 182.356C86.8478 182.505 88.0151 182.648 89.1824 182.762C89.3803 182.782 89.5979 182.589 89.7958 182.609C91.0076 182.732 92.2145 182.985 93.4213 183.014C96.4781 183.079 99.5299 183.049 102.587 183.054C103.319 183.049 104.041 183.049 104.763 183.049ZM217.027 120.232C215.484 121.968 214.025 123.615 212.571 125.247C213.367 125.322 216.795 121.562 217.027 120.232ZM182.196 84.3718C181.964 84.2432 181.82 84.1245 181.662 84.0849C181.242 83.986 180.811 83.897 180.381 83.8524C180.242 83.8376 180.01 83.9415 179.956 84.0552C179.797 84.4064 179.703 84.7873 179.585 85.1583C179.639 85.2226 179.693 85.2868 179.748 85.3511C180.509 85.0445 181.266 84.7428 182.196 84.3718ZM78.7509 180.922C78.7756 180.838 78.7954 180.754 78.8201 180.675C78.5926 180.239 78.1919 180.467 77.8408 180.482C77.8259 180.541 77.8111 180.596 77.7913 180.655C78.1128 180.744 78.4293 180.833 78.7509 180.922Z" fill="#DE415F"/>
</svg>
