<svg width="260" height="260" viewBox="0 0 260 260" fill="none" xmlns="http://www.w3.org/2000/svg">
<path d="M30.8363 156.2C30.9267 155.416 31.012 154.487 31.1426 153.568C31.4439 151.434 31.454 151.434 33.2367 151.62C34.3767 150.139 35.4313 148.773 36.5763 147.281C34.4319 146.528 34.4621 143.52 32.3077 142.169C31.685 141.777 31.7101 140.266 31.5494 139.251C31.3887 138.217 31.4238 137.207 30.1483 136.715C29.8169 136.585 29.626 135.645 29.6511 135.093C29.9223 128.771 30.8463 122.548 32.2625 116.367C33.5481 110.772 35.7125 105.665 39.3282 101.251C42.497 97.3839 46.2885 94.2252 50.9388 92.2014C51.8929 91.7846 52.837 91.3276 53.741 90.8053C56.7039 89.0828 59.9178 88.4501 63.3076 88.43C63.7495 88.43 64.2065 88.204 64.6334 88.0182C70.3181 85.5926 76.1284 84.0459 82.4208 84.6636C84.9417 84.9097 87.528 84.528 90.0791 84.3623C90.4808 84.3372 91.0734 84.0559 91.2191 83.7345C92.2536 81.4245 94.4029 81.2889 96.4518 80.9324C96.8586 80.8621 97.2804 80.7616 97.6822 80.7968C100.499 81.0428 102.91 79.6367 105.491 78.9286C106.737 78.5872 108.037 78.4114 109.323 78.2306C110.433 78.0749 111.643 78.2959 112.416 77.1509C112.512 77.0103 112.783 76.9199 112.979 76.9149C116.263 76.8546 119.141 74.7203 122.274 74.655C128.521 74.5245 133.92 71.5164 139.8 70.2358C146.675 68.7393 153.55 67.2076 160.48 65.9923C165.688 65.0784 170.976 64.5912 176.244 64.0137C180.744 63.5216 185.258 63.145 189.768 62.7633C193.128 62.4821 196.206 63.2856 199.199 64.9026C204.788 67.9157 209.449 71.7474 211.678 77.9142C212.241 79.466 212.683 81.1182 212.813 82.7503C213.255 88.2944 214.189 93.8988 211.191 99.7191C213.546 99.5735 215.56 99.7593 217.383 99.2672C222.189 97.9715 225.755 100.066 228.843 103.244C229.662 104.088 229.943 105.73 229.978 107.021C230.174 113.7 230.339 120.384 230.239 127.068C230.194 130.061 230.53 133.054 230.214 136.042C229.948 138.558 229.792 141.109 229.25 143.57C228.868 145.313 227.954 146.94 227.241 148.602C226.633 150.008 225.94 151.374 225.338 152.775C223.886 156.15 220.436 156.592 217.669 158.033C217.519 158.113 217.182 158.088 217.092 157.978C215.977 156.692 214.978 157.681 213.908 158.058C212.718 158.48 211.492 159.283 210.252 158.123C210.152 158.028 209.961 157.988 209.815 157.993C207.701 158.098 205.582 158.209 203.468 158.349C203.191 158.369 202.91 158.535 202.654 158.676C201.223 159.454 199.837 160.313 198.37 161.011C196.884 161.719 195.503 161.438 194.448 160.107C193.841 159.344 193.218 159.233 192.274 159.56C189.19 160.619 186.047 161.518 182.958 162.573C180.945 163.261 179.061 162.939 177.163 162.201C175.837 161.689 174.712 161.553 173.301 162.553C172.131 163.386 170.348 163.622 168.832 163.642C166.366 163.677 164.287 164.611 162.208 165.711C159.828 166.972 157.312 167.615 154.605 167.916C152.199 168.182 149.879 169.161 147.499 169.724C140.8 171.311 134.091 172.832 127.391 174.399C121.918 175.68 116.454 177.015 110.98 178.296C105.295 179.622 99.5704 180.782 93.9258 182.253C90.9278 183.037 88.1005 184.463 85.1225 185.362C79.8847 186.944 74.5867 188.34 69.3188 189.826C64.8041 191.097 60.3196 192.478 55.7748 193.638C52.8069 194.396 49.7436 194.773 46.7556 195.471C45.3645 195.797 43.9835 196.35 42.7381 197.048C41.6182 197.675 41.3671 196.977 40.9855 196.289C40.5034 195.421 40.2623 194.22 39.5341 193.723C36.3553 191.554 35.1199 188.204 33.99 184.855C32.609 180.757 31.469 176.579 30.319 172.405C29.842 170.678 30.309 170.206 32.1269 170.246C32.0968 168.026 32.2575 165.867 31.0422 163.738C30.4496 162.708 30.8463 161.081 30.8815 159.73C30.9166 158.5 30.5852 158.515 30.6203 157.536M202.272 99.915C203.463 100.543 203.945 99.9802 204.351 98.9307C205.918 94.863 206.722 90.735 205.848 86.366C205.135 82.7804 203.864 79.5614 200.68 77.412C198.993 76.2721 197.386 75.0066 195.638 73.9721C192.214 71.9432 188.538 71.0142 184.53 71.7825C183.049 72.0688 181.552 72.3098 180.056 72.4906C175.657 73.033 171.232 73.4297 166.848 74.0775C160.917 74.9564 155.017 76.021 149.101 76.9952C144.832 77.6983 140.524 78.2055 136.506 79.9882C132.433 81.7961 128.185 82.7151 123.695 82.1326C123.253 82.0773 122.671 82.1075 122.339 82.3535C120.607 83.6241 118.669 84.0057 116.574 83.9204C115.65 83.8852 114.957 84.1765 114.365 85.0603C113.988 85.6278 113.059 85.9994 112.326 86.1199C111.206 86.3057 110.036 86.2003 108.886 86.2103C107.234 86.2254 105.737 86.5167 104.396 87.6817C103.764 88.2291 102.684 88.3697 101.785 88.4702C100.6 88.6007 99.3796 88.435 98.1894 88.5555C97.627 88.6108 96.8435 88.897 96.5975 89.3239C94.9202 92.2315 91.9673 92.6433 89.145 93.1405C87.5883 93.4167 85.931 93.0903 84.319 93.1405C80.5627 93.261 76.6908 92.9145 73.0902 93.7481C69.2886 94.6269 65.7834 96.7261 62.0873 98.1372C60.415 98.775 58.6021 99.0512 56.8445 99.453C55.8401 99.684 54.66 99.5685 53.8263 100.061C50.6324 101.949 47.5842 104.068 45.244 107.036C40.187 113.449 38.4896 121.047 37.7413 128.911C37.3547 132.969 37.8669 133.642 42.5573 132.632C42.6075 132.622 42.6527 132.592 42.7029 132.577C45.9018 131.512 49.0506 130.237 52.3148 129.418C58.9838 127.746 65.6729 126.104 72.4323 124.853C78.097 123.809 83.6612 122.423 88.9894 120.344C92.7457 118.877 96.3966 117.446 100.464 116.959C103.377 116.613 106.159 115.302 109.057 114.684C112.1 114.031 115.213 113.72 118.287 113.203C121.662 112.635 125.051 111.42 128.396 111.536C135.271 111.777 141.704 109.672 148.307 108.553C154.309 107.533 160.184 105.77 166.155 104.54C169.721 103.807 173.377 103.556 176.967 102.923C179.528 102.471 182.029 101.688 184.57 101.135C190.22 99.9049 195.875 98.7047 201.544 97.5647C202.071 97.4593 202.699 97.8711 203.282 98.0418C203.046 98.549 202.815 99.0612 202.569 99.5634C202.503 99.704 202.378 99.7944 202.272 99.915ZM92.1933 146.704C92.2937 146.166 92.2435 145.539 92.5147 145.107C93.9108 142.862 95.8793 141.039 97.0243 138.568C97.6973 137.117 99.0029 135.962 100.022 134.671C100.188 134.817 100.349 134.967 100.515 135.113C100.289 135.128 100.068 135.148 99.8416 135.163C99.7411 135.058 99.6407 134.952 99.5453 134.847C100.761 133.802 101.976 132.753 103.287 131.628C101.88 130.97 100.961 131.106 100.073 132.09C99.5754 132.642 98.8422 133.049 98.1442 133.345C95.0959 134.621 92.0828 135.942 88.904 136.956C82.8024 138.9 76.8264 141.255 70.8002 143.444C70.4035 143.59 70.0268 143.796 69.6402 143.977C69.6402 144.112 69.6402 144.253 69.6351 144.388C71.1417 145.001 72.6482 145.609 74.2251 146.252C74.1699 146.417 74.0996 146.658 74.0142 146.894C72.7587 150.349 71.684 153.89 70.1875 157.239C68.912 160.092 68.6157 163.371 66.4262 165.837C65.693 166.66 65.1506 167.66 64.553 168.599C63.7294 169.879 62.936 171.175 62.1325 172.466C61.9115 172.566 62.2781 172.988 62.1827 173.199C61.6755 174.299 61.0377 175.343 60.4753 176.418C60.3045 176.739 60.2392 177.111 60.0986 177.452C59.496 178.954 59.7823 180.877 58.3259 181.716C57.2261 181.184 56.3573 180.767 55.6493 180.42C54.3888 180.802 53.2438 181.279 52.0586 181.47C51.1798 181.61 50.5069 181.138 50.8132 180.054C51.5163 177.558 52.2444 175.062 52.9576 172.566C53.3392 171.24 53.7108 169.91 54.1076 168.589C54.2984 167.951 54.444 167.273 54.7704 166.716C57.9292 161.372 61.1281 156.054 64.2969 150.721C65.467 148.747 66.5768 146.744 67.546 145.046C66.2705 145.518 64.8694 146.237 63.3779 146.553C59.501 147.376 56.0711 149.22 52.5056 150.821C48.3274 152.7 44.2999 155.16 39.504 155.401C38.9365 155.432 37.9673 156.004 37.9271 156.401C37.7263 158.44 37.1337 160.775 37.8719 162.492C39.2378 165.676 39.3785 168.92 39.3182 172.149C39.1977 178.331 42.0099 183.549 44.2296 188.978C44.3501 189.279 44.9527 189.63 45.2591 189.57C48.2772 189.018 51.3305 188.546 54.2833 187.732C57.9995 186.713 61.6203 185.342 65.3063 184.212C72.6231 181.967 79.9601 179.803 87.2719 177.543C88.4872 177.166 89.5619 176.292 90.7822 175.981C96.3414 174.58 101.941 173.35 107.5 171.963C114.937 170.11 122.345 168.147 129.772 166.264C135.175 164.898 140.584 163.562 146.002 162.261C149.392 161.448 152.797 160.684 156.212 159.961C159.18 159.334 161.877 158.128 164.443 156.572C163.303 155.361 162.233 154.231 161.329 153.267C162.705 150.219 164.101 147.366 165.301 144.434C166.828 140.687 167.963 136.765 169.701 133.13C171.775 128.781 174.286 124.638 176.666 120.444C177.731 118.571 178.936 116.778 180.01 115.061C172.412 115.849 164.799 116.643 156.804 117.476C157.894 118.466 158.718 119.209 159.476 119.892C158.718 121.584 158.09 123.246 157.251 124.798C155.097 128.801 152.882 132.773 150.623 136.715C149.92 137.94 148.744 138.935 148.232 140.215C147.238 142.706 146.55 145.318 145.761 147.889C144.285 152.725 142.095 157.094 137.973 160.243C137.264 159.329 136.612 158.465 135.934 157.611C135.175 156.657 133.604 156.29 135.2 154.352C136.797 152.413 137.435 149.692 138.565 147.346C139.439 145.533 140.303 143.716 141.106 141.868C141.623 140.677 142.382 139.593 143.07 138.397C143.095 138.176 143.025 137.725 143.205 137.433C144.2 135.866 145.345 134.395 146.274 132.798C148.087 129.669 149.794 126.476 151.547 123.307C151.471 123.246 151.391 123.186 151.316 123.126C150.251 124.356 149.186 125.587 148.122 126.822C148.157 126.069 148.383 125.401 148.825 124.954C150.005 123.774 150.723 122.222 152.616 121.604C153.555 121.298 154.012 119.505 154.69 118.385C154.6 118.27 154.515 118.149 154.424 118.034C148.559 119.576 142.693 121.117 136.692 122.694C137.29 123.337 137.737 123.814 138.173 124.281C137.234 125.562 136.205 126.641 135.557 127.917C134.297 130.398 133.287 133.004 132.087 135.52C131.806 136.117 131.188 136.554 130.726 137.062C130.907 137.499 130.887 138.006 130.696 138.433C129.561 140.954 128.531 143.54 127.165 145.93C126.307 147.437 126.945 149.988 124.293 150.38C124.705 150.43 125.117 150.48 125.548 150.535C125.051 151.771 124.514 152.87 124.162 154.025C123.439 156.391 121.817 158.279 120.858 160.554C119.567 163.607 117.76 166.55 115.264 168.564C113.581 167.258 111.979 166.013 110.302 164.712C110.528 164.235 110.784 163.733 111.01 163.21C111.839 161.302 112.813 159.444 113.451 157.475C114.591 153.955 115.374 150.314 116.6 146.824C117.795 143.429 119.241 140.105 120.803 136.856C121.667 135.058 123.068 133.526 124.102 131.804C124.73 130.759 124.991 129.489 125.649 128.469C126.899 126.536 128.31 124.708 129.656 122.835C128.486 123.257 127.537 124.09 126.447 124.376C125.016 124.753 123.474 124.683 121.983 124.833C121.546 124.879 120.843 124.874 120.727 125.12C119.894 126.837 118.453 127.108 116.79 126.978C115.917 126.907 115.038 126.752 114.169 126.787C113.697 126.807 113.175 127.068 112.783 127.364C112.03 127.932 111.432 128.76 110.618 129.192C109.273 129.91 107.806 130.398 106.38 130.985C107.756 132.361 110.563 131.412 111.211 134.199C109.227 134.084 108.73 135.51 108.133 136.76C107.108 138.905 106.32 141.18 105.13 143.228C103.352 146.292 101.338 149.22 99.3796 152.177C97.5416 154.949 95.4726 157.576 93.8254 160.453C91.7564 164.064 90.0138 167.866 88.1306 171.582C86.7797 174.248 86.7797 174.243 84.0227 173.149C83.8922 173.098 83.7415 173.083 83.7465 173.083C83.2393 173.545 82.8476 173.982 82.3806 174.304C81.8533 174.67 81.2557 174.936 80.6933 175.248C80.5175 174.59 80.1559 173.922 80.1961 173.279C80.5125 167.846 82.4459 162.859 84.8865 158.098C85.454 156.993 85.7302 155.135 87.6686 155.02C87.8092 155.01 87.9147 154.442 88.0352 154.136C86.4182 153.714 87.7389 152.951 87.98 152.604C88.8939 151.263 89.9536 150.023 90.973 148.758C91.0533 148.657 91.2592 148.657 91.4049 148.612C90.7671 147.366 91.9221 147.271 92.1933 146.704ZM190.853 152.825C189.552 151.61 188.216 150.264 186.77 149.039C186.142 148.506 185.971 148.09 186.278 147.326C189.015 140.512 191.405 133.531 194.544 126.907C197.266 121.162 200.831 115.819 204.045 110.26C204.025 110.245 204.221 110.325 204.371 110.456C205.23 111.189 205.873 112.073 207.365 111.797C207.932 111.691 209.449 113.143 209.348 113.64C208.751 116.527 208.007 119.425 206.923 122.162C205.431 125.923 203.764 129.659 202.935 133.581C202.323 136.479 201.389 139.055 199.691 141.4C199.184 142.104 198.159 142.641 198.029 143.374C197.692 145.262 196.191 146.161 195.146 147.452C195.091 147.517 195.076 147.613 195.031 147.718C195.292 147.879 195.543 148.039 195.769 148.185C194.966 150.113 194.172 152.012 193.288 154.131C195.93 153.347 198.225 152.67 200.665 151.946C200.695 150.751 201.68 150.606 202.89 150.585C206.481 150.53 210.066 150.324 213.657 150.334C214.606 150.334 215.545 150.922 216.504 151.198C216.921 151.319 217.363 151.324 217.8 151.379C217.875 151.243 217.946 151.108 218.021 150.972C216.58 149.852 216.565 148.597 217.474 147.241C217.554 147.12 217.544 146.94 217.589 146.789C219.789 139.276 221.978 131.733 222.39 123.869C222.661 118.722 222.465 113.549 222.505 108.387C222.515 107.342 221.953 106.991 221.044 107.006C220.527 107.016 220.01 107.121 219.492 107.167C215.289 107.523 211.091 108.126 206.887 108.166C201.705 108.221 196.613 108.332 191.832 110.667C190.416 111.36 188.914 111.867 187.448 112.46C187.332 112.686 187.217 112.917 187.096 113.143C187.865 113.695 188.688 114.182 189.366 114.82C189.662 115.096 189.914 115.789 189.773 116.115C188.648 118.752 187.388 121.328 186.248 123.96C185.434 125.843 184.631 127.701 182.958 129.022C182.752 129.187 182.552 129.539 182.577 129.785C182.762 131.814 181.532 132.843 180.332 133.436C180.081 134.445 180.046 135.259 179.694 135.897C178.544 137.961 176.982 139.753 176.068 141.998C175.561 143.249 174.326 144.203 173.417 145.292C173.271 145.197 173.126 145.097 172.985 145.001C173.04 144.589 173.09 144.173 173.146 143.761C173.035 143.69 172.93 143.62 172.819 143.55C172.362 144.072 171.905 144.599 171.408 145.162C172.317 145.368 172.889 145.498 173.271 145.589C170.931 149.104 168.671 152.499 166.2 156.205C167.391 155.994 168.249 155.884 169.083 155.688C171.714 155.065 174.316 154.462 177.088 154.829C178.66 155.04 180.322 154.939 181.894 154.678C184.786 154.201 187.654 153.503 190.853 152.825ZM147.429 111.335C147.409 111.209 147.389 111.084 147.373 110.958C146.098 111.169 144.822 111.375 143.547 111.586C140.624 112.068 137.711 112.65 134.774 113.012C132.559 113.288 130.279 113.122 128.074 113.449C124.177 114.031 120.316 114.85 116.439 115.548C115.826 115.658 115.188 115.613 114.571 115.709C113.235 115.91 111.889 116.065 110.583 116.392C107.003 117.291 103.442 118.28 99.8717 119.219C97.868 119.746 95.6684 119.887 93.8806 120.826C89.0948 123.332 83.8871 124.492 78.7699 125.813C72.7236 127.379 66.5166 128.314 60.405 129.619C56.3825 130.478 52.3348 131.322 48.4078 132.542C45.254 133.521 42.4016 135.545 38.7758 134.787C39.1324 136.795 39.4488 138.588 39.7702 140.371C40.2623 143.088 44.1743 145.177 46.7204 144.057C48.5333 143.264 50.291 142.325 52.134 141.601C57.5224 139.482 63.1067 137.945 68.46 135.645C72.7286 133.812 77.4441 133.024 81.9588 131.764C82.5061 131.613 83.0636 131.452 83.5607 131.191C84.5902 130.639 85.5142 129.795 86.599 129.479C88.1306 129.032 89.5217 128.379 90.973 127.751C95.3521 125.858 99.8667 124.276 104.346 122.619C106.049 121.991 107.811 121.529 109.524 120.911C111.111 120.339 112.642 119.606 114.234 119.058C115.59 118.591 117.016 118.33 118.387 117.908C120.923 117.135 123.399 116.095 125.985 115.563C128.913 114.955 131.951 115.473 134.929 114.503C139.007 113.173 143.256 112.369 147.429 111.335ZM129.877 133.305C129.646 133.185 129.41 133.069 129.179 132.949C124.755 143.053 120.331 153.152 115.907 163.256C116.057 163.321 116.208 163.391 116.353 163.456C121.983 153.905 125.84 143.565 129.877 133.305ZM194.132 142.164C199.43 136.58 201.434 129.368 204.01 122.438C199.38 128.354 197.286 135.52 194.132 142.164ZM186.253 103.937C186.217 103.742 186.187 103.551 186.152 103.355C184.57 103.661 182.983 103.963 181.402 104.274C178.454 104.851 175.521 105.504 172.558 106.006C169.831 106.468 167.074 106.765 164.332 107.136C164.372 107.398 164.418 107.664 164.458 107.925C171.684 106.373 179.317 107.161 186.253 103.937ZM174.095 139.065C173.994 138.97 173.899 138.874 173.798 138.784C177.138 132.381 180.483 125.973 183.822 119.57C183.661 119.49 183.501 119.41 183.345 119.329C179.84 125.838 175.822 132.09 173.387 139.126C174.145 139.377 174.722 139.573 175.39 139.793C175.581 139.427 175.782 139.045 176.184 138.277C175.23 138.638 174.662 138.854 174.095 139.065ZM86.5186 164.32C87.6987 163.261 88.6328 162.422 89.5518 161.593C89.0948 161.076 88.7784 160.715 88.3365 160.217C87.7439 161.558 87.1815 162.834 86.5186 164.32ZM104.703 139.316C104.467 139.07 104.03 138.608 103.427 137.981C102.88 138.859 102.227 139.904 101.363 141.285C102.769 140.451 103.799 139.844 104.703 139.316ZM99.8115 145.433C97.6721 145.368 97.2654 145.97 97.5466 148.521C98.3149 147.472 98.9828 146.563 99.8115 145.433ZM118.121 148.758C118.252 148.808 118.377 148.853 118.508 148.903C119.035 147.628 119.562 146.347 120.095 145.071C119.914 145.001 119.733 144.931 119.547 144.861C119.07 146.156 118.593 147.457 118.121 148.758Z" fill="#DE415F"/>
<path d="M158.746 94.0242C162.617 92.5779 166.494 91.1316 170.371 89.7004C170.904 89.5046 171.466 89.369 172.028 89.2836C172.365 89.2334 172.726 89.3388 173.073 89.374C172.887 89.7054 172.731 90.0519 172.505 90.3533C172.39 90.5089 172.169 90.6043 171.978 90.6746C168.242 92.1109 164.521 93.5773 160.754 94.9231C160.202 95.119 159.434 94.7323 158.766 94.6168C158.761 94.421 158.751 94.2201 158.746 94.0242Z" fill="#DE415F"/>
<path d="M68.1112 115.718C70.6322 111.605 74.5995 109.963 78.3056 107.984C78.9534 107.638 79.8975 107.849 80.7061 107.804C80.7362 107.964 80.7663 108.13 80.7964 108.291C79.2949 109.039 77.7231 109.672 76.317 110.561C73.9969 112.022 71.7973 113.669 69.5224 115.201C69.1156 115.472 68.5833 115.547 68.1112 115.718Z" fill="#DE415F"/>
<path d="M128.834 91.2324C126.479 92.4677 124.128 93.7583 121.718 94.9234C121.191 95.1795 120.452 94.9937 119.81 95.0138C120.106 94.4463 120.251 93.6378 120.718 93.3566C122.456 92.302 124.289 91.4182 126.097 90.4841C127.352 89.8413 128.261 90.2933 128.834 91.2324Z" fill="#DE415F"/>
<path d="M177.879 75.4433C175.805 76.2719 173.927 77.1156 171.974 77.7332C171.466 77.8939 170.738 77.3516 169.895 77.0503C172.983 74.2179 176.096 73.5902 177.879 75.4433Z" fill="#DE415F"/>
<path d="M94.0407 98.5089C92.2328 99.4129 90.4751 100.272 88.7376 101.181C87.7834 101.683 87.1909 101.457 86.8142 100.372C88.1601 99.5736 89.4909 98.7902 90.8166 97.9967C92.0721 97.2435 93.1618 97.369 94.0407 98.5089Z" fill="#DE415F"/>
<path d="M189.895 89.1322C193.239 86.1995 195.479 85.9634 196.458 88.0676C194.851 88.7003 193.264 89.4185 191.607 89.9156C191.195 90.0362 190.568 89.4536 189.895 89.1322Z" fill="#DE415F"/>
<path d="M180.119 80.0636C181.571 79.4308 182.952 78.7127 184.413 78.2658C184.86 78.1302 185.533 78.7227 186.106 78.9789C185.794 79.4007 185.563 79.9682 185.146 80.2092C184.393 80.6411 183.519 80.8671 182.701 81.1935C181.641 81.6103 180.787 81.4647 180.119 80.0636Z" fill="#DE415F"/>
<path d="M64.0196 106.509C63.6731 106.102 63.3919 105.766 62.9851 105.283C64.4465 104.199 65.7521 103.099 67.1934 102.215C68.1877 101.602 69.2172 101.914 70.0659 102.752C68.931 103.36 67.8714 103.862 66.8821 104.475C65.9128 105.073 65.0189 105.786 64.0196 106.509Z" fill="#DE415F"/>
<path d="M48.8868 120.073C50.5691 118.993 51.7493 118.24 53.2006 117.31C53.3914 117.988 53.7831 118.737 53.6124 118.907C52.7737 119.726 51.8396 120.494 50.8051 121.037C50.4988 121.192 49.7706 120.54 48.8868 120.073Z" fill="#DE415F"/>
<path d="M109.341 109.477C112.379 105.867 112.379 105.867 113.76 107.087C112.881 107.941 112.083 108.89 111.104 109.583C110.727 109.849 109.939 109.533 109.341 109.477Z" fill="#DE415F"/>
<path d="M108.932 98.183C107.721 99.2778 106.622 100.277 105.22 101.553C105.045 100.915 104.653 100.287 104.824 99.9708C105.964 97.8918 107.355 97.2841 108.932 98.183Z" fill="#DE415F"/>
<path d="M153.41 86.7428C152.215 87.7271 151.2 88.6009 150.141 89.4144C149.915 89.5902 149.518 89.6455 149.227 89.6003C149.086 89.5802 148.885 89.1985 148.9 88.9876C148.966 87.9531 151.507 86.0046 152.531 86.2155C152.853 86.2858 153.129 86.5671 153.41 86.7428Z" fill="#DE415F"/>
<path d="M137.647 102.652C135.754 102.984 135.156 105.454 132.821 104.711C134.81 101.899 136.02 101.291 137.647 102.652Z" fill="#DE415F"/>
<path d="M82.1569 116.823C83.8493 116.005 85.0244 113.845 87.6508 114.739C86.1694 115.744 84.939 116.648 83.6283 117.421C83.2667 117.637 82.6691 117.451 82.182 117.451C82.172 117.24 82.1619 117.029 82.1569 116.823Z" fill="#DE415F"/>
<path d="M52.3846 106.885C54.6344 104.781 54.8553 104.711 56.5527 105.625C53.2684 107.774 53.2684 107.774 52.3846 106.885Z" fill="#DE415F"/>
</svg>
