<svg width="260" height="260" viewBox="0 0 260 260" fill="none" xmlns="http://www.w3.org/2000/svg">
<g clip-path="url(#clip0_246_566)">
<path d="M246.07 99.29C244.63 96.11 244.61 92.49 243.77 89.15C241.08 78.32 229.4 81.42 221 81.51C216.32 76.23 207.61 69.31 195.22 71.38C188.68 72.47 177.36 76.06 164.71 80.46C162.65 80.33 160.59 80.3 158.5 80.44C153.89 80.75 149.24 81.63 144.59 81.7C140.02 81.77 135.5 80.94 131.05 80.67C127.25 80.44 123.21 80.65 119.42 80.34C118.09 80.23 116.54 79.73 115.19 79.64C110.85 79.38 105.31 80.73 106.79 86.29C107.76 89.96 110.43 91.64 111.94 95.13C111.34 95.32 110.74 95.51 110.15 95.73C102.28 98.64 94.93 102.68 87.01 105.51C64.2 109.66 34.72 113.65 34.3 113.71L33.57 113.81L32.94 114.19C30.28 115.81 26.27 119.74 26.72 124.74C24 125.67 21.25 126.67 18.54 127.41C17.17 127.78 15.42 127.88 14.03 128.28C9.58004 129.57 4.57004 132.75 8.25004 137.21C11.28 140.89 15.72 140.83 18.97 145.68C20.24 147.58 21.35 149.68 22.54 151.69C21.54 156.56 22.21 161.32 22.58 166.04C22.73 167.95 23.25 169.89 23.91 171.71C26.52 178.94 31.99 183.44 38.55 186.97C42.06 188.87 45.67 189.81 49.61 189.48C54.9 189.03 60.19 188.59 65.47 188.01C71.65 187.33 77.85 186.76 83.96 185.69C92.09 184.26 100.15 182.47 108.21 180.71C115.11 179.21 121.44 175.68 128.76 175.53C132.43 175.45 135.81 172.95 139.66 172.88C139.89 172.88 140.21 172.77 140.32 172.6C141.23 171.26 142.65 171.52 143.95 171.33C145.46 171.12 146.98 170.91 148.44 170.51C151.47 169.68 154.29 168.03 157.6 168.32C158.07 168.36 158.57 168.24 159.04 168.16C161.44 167.74 163.96 167.58 165.18 164.87C165.35 164.49 166.05 164.16 166.52 164.13C169.51 163.94 172.54 163.49 175.5 163.78C182.88 164.5 189.69 162.69 196.36 159.85C196.86 159.63 197.4 159.37 197.91 159.37C201.89 159.35 205.65 158.6 209.13 156.58C210.19 155.97 211.3 155.43 212.42 154.94C217.87 152.57 222.32 148.86 226.04 144.33C230.28 139.15 232.82 133.16 234.33 126.6C235.28 122.44 236.04 118.27 236.57 114.07C242.45 115.21 249.03 117.62 251.98 110.31C253.24 107.2 247.3 102.02 246.05 99.26L246.07 99.29ZM241.04 96.86C241.08 96.95 240.9 97.41 240.99 97.73C241.31 98.97 241.8 99.99 242.27 101.15C242.63 102.08 241.9 101.44 241.45 101.38C238.87 101.06 236.47 100.46 234 99.99C233.84 99.96 233.68 99.93 233.52 99.9C233.14 99.83 232.76 99.78 232.38 99.72C232.19 99.69 232.01 99.66 231.83 99.63C231.44 99.58 231.03 99.54 230.63 99.5C230.45 99.48 230.28 99.46 230.1 99.44C229.52 99.39 228.93 99.36 228.32 99.36C227.91 99.36 227.5 99.36 227.08 99.39C227.03 99.39 226.98 99.39 226.93 99.39C226.54 99.41 226.14 99.44 225.74 99.48C220.86 99.93 215.61 101.45 211 100.75C208.6 100.39 206.29 99.47 203.88 99.07C203.84 99.07 203.8 99.05 203.75 99.05C203.38 98.99 203 98.95 202.62 98.92C195.76 98.42 190.96 101.9 184.42 101.95C183.79 101.95 183.18 101.92 182.57 101.87C182.38 101.85 182.2 101.83 182.02 101.81C181.59 101.76 181.17 101.71 180.75 101.64C180.57 101.61 180.39 101.59 180.21 101.55C176.5 100.88 173.17 99.57 169.18 99.42C164.76 99.26 160.23 100.84 155.68 101.26C155.12 101.31 154.56 101.36 153.99 101.37C153.5 101.37 153.01 101.37 152.52 101.37C152.44 101.37 152.36 101.37 152.28 101.36C151.88 101.35 151.47 101.33 151.07 101.31C151.05 101.31 151.03 101.31 151.01 101.31C150.07 101.25 149.13 101.16 148.2 101.05C144.72 100.64 141.32 99.97 137.83 99.64C137.32 99.59 136.81 99.55 136.3 99.52C136.22 99.52 136.14 99.52 136.06 99.51C135.63 99.49 135.19 99.47 134.75 99.46C134.62 99.46 134.5 99.46 134.37 99.46C133.96 99.46 133.55 99.46 133.14 99.47C133.07 99.47 132.99 99.47 132.92 99.47C132.9 99.47 132.88 99.47 132.86 99.47C132.81 99.47 132.76 99.47 132.71 99.47C132.17 99.49 131.63 99.53 131.08 99.58C129.88 99.7 128.68 99.9 127.48 100.11C127.23 100.15 126.98 100.19 126.73 100.24C123.74 100.78 120.74 101.33 117.7 100.97C117.4 100.76 117.4 99.25 117.37 98.31C117.37 98.19 117.37 98.08 117.36 97.99C117.36 97.92 117.36 97.86 117.35 97.81C117.35 97.8 117.35 97.77 117.35 97.76C117.35 97.75 117.35 97.72 117.35 97.71C117.21 96.55 117.01 95.32 116.78 94.17C116.95 93.94 116.89 93.78 117.22 93.81C117.73 93.86 118.67 94.3 119.34 94.4C119.81 94.47 120.27 94.5 120.72 94.51C120.81 94.51 120.9 94.51 120.99 94.51C121.42 94.51 121.84 94.51 122.26 94.48C122.34 94.48 122.42 94.47 122.49 94.46C122.88 94.43 123.26 94.38 123.64 94.33C123.69 94.33 123.74 94.32 123.79 94.31C124.2 94.25 124.61 94.17 125.01 94.09C125.1 94.07 125.2 94.05 125.29 94.03C125.68 93.95 126.07 93.86 126.46 93.77C126.74 93.7 127.03 93.63 127.31 93.56C127.5 93.51 127.68 93.47 127.87 93.43C128.27 93.33 128.67 93.24 129.08 93.15C129.16 93.13 129.24 93.12 129.32 93.1C129.74 93.01 130.16 92.93 130.59 92.86C131.46 92.72 132.35 92.64 133.29 92.64C136.93 92.65 140.24 93.54 143.55 94.4C144.16 94.56 144.76 94.71 145.37 94.86C145.37 94.86 145.38 94.86 145.39 94.86C145.77 94.95 146.14 95.05 146.52 95.14C146.56 95.14 146.6 95.16 146.64 95.17C147.11 95.28 147.58 95.38 148.06 95.47C148.08 95.47 148.1 95.47 148.12 95.48C148.63 95.58 149.14 95.66 149.65 95.74C149.96 95.78 150.26 95.83 150.57 95.86C158.4 96.74 165.32 91.45 173.27 93.46C177.2 94.46 180.37 96.29 184.63 96.25C190.49 96.21 195.44 92.84 201.27 93.9C201.67 93.97 202.07 94.06 202.47 94.18C204.01 94.62 205.58 95.52 207.02 95.97C207.19 96.02 207.36 96.07 207.55 96.11C207.59 96.11 207.64 96.13 207.68 96.13C207.83 96.16 207.98 96.19 208.15 96.22C208.2 96.22 208.25 96.23 208.3 96.24C208.47 96.26 208.63 96.29 208.81 96.3C208.86 96.3 208.91 96.3 208.96 96.31C209.14 96.33 209.33 96.34 209.52 96.35C209.56 96.35 209.6 96.35 209.64 96.35C209.85 96.36 210.05 96.37 210.27 96.38C210.29 96.38 210.3 96.38 210.32 96.38C210.56 96.38 210.8 96.38 211.05 96.38C211.05 96.38 211.06 96.38 211.07 96.38C211.33 96.38 211.58 96.38 211.84 96.37C211.84 96.37 211.84 96.37 211.85 96.37C212.11 96.37 212.38 96.35 212.64 96.34C214.74 96.22 216.85 95.91 218.19 95.54C219.34 95.22 220.48 94.61 221.67 94.3C221.81 94.26 221.95 94.21 222.09 94.19C222.83 94.05 223.59 93.95 224.37 93.87C224.48 93.86 224.6 93.86 224.71 93.85C225.4 93.79 226.09 93.75 226.8 93.74C226.85 93.74 226.9 93.74 226.95 93.74C228.55 93.73 230.18 93.83 231.79 94.04C234.75 94.43 237.64 95.18 240.14 96.27C240.44 96.4 240.91 96.54 241.04 96.85V96.86ZM161 116.29C164.13 116.62 167.2 117.41 170.28 118.12C167.48 118.99 164.73 120.02 162.09 121.4C159.99 122.5 157.41 122.67 155.06 123.28C150.87 124.38 146.7 125.54 142.5 126.6C140.97 126.98 139.39 127.17 137.82 127.4C137.1 127.51 136.35 127.46 135.63 127.59C131.08 128.41 126.55 129.37 121.98 130.05C121.09 130.18 120.18 130.24 119.27 130.28C119.55 130.22 119.83 130.16 120.11 130.08C123.3 129.23 125.98 127.92 128.48 126.44C130.1 125.9 131.71 125.32 133.34 124.82C134.95 124.33 136.62 124.02 138.21 123.47C140.08 122.83 141.87 121.97 143.73 121.3C145.74 120.58 147.81 120.03 149.8 119.3C152.58 118.27 155.36 117.27 158.13 116.22C159.08 116.18 160.03 116.19 160.98 116.29H161ZM128.36 120.68C128.13 120.85 127.89 121.01 127.66 121.17C127.35 121.38 127.05 121.6 126.73 121.8C126.4 122.02 126.05 122.22 125.7 122.42C125.46 122.56 125.23 122.71 124.98 122.84C124.37 123.17 123.75 123.48 123.09 123.76C117.35 126.16 111.04 126.15 105.44 128.33C98.81 130.91 95.51 136.04 87.85 137.47C81.59 138.64 75.51 138.88 69.47 141.24C68.98 141.43 68.51 141.65 68.04 141.86C62.87 144.19 58.7 147.69 53.55 150.01C49.36 151.9 40.56 155.48 36.06 155.76C34.98 155.82 34.03 155.85 32.98 155.55C32.01 155.27 31.24 154.83 30.57 154.31C28.96 153.06 28 151.26 26.82 149.54V149.25C27.02 148.83 31.56 147.64 32.37 147.3C32.4 147.29 32.43 147.27 32.45 147.26C34.14 146.54 35.8 145.68 37.48 144.83C37.71 144.71 37.94 144.6 38.18 144.48C38.48 144.33 38.79 144.18 39.09 144.03C39.69 143.74 40.3 143.45 40.91 143.18C41.07 143.11 41.23 143.04 41.39 142.97C42.06 142.68 42.73 142.41 43.42 142.16C49.91 139.89 57.04 140.02 63.72 137.39C64.11 137.24 64.49 137.07 64.87 136.9C65 136.84 65.13 136.78 65.26 136.71C65.5 136.6 65.74 136.48 65.97 136.36C66.13 136.28 66.28 136.2 66.44 136.12C66.64 136.02 66.83 135.91 67.03 135.8C67.21 135.7 67.38 135.61 67.55 135.51C67.71 135.42 67.87 135.33 68.02 135.24C68.23 135.12 68.44 134.99 68.66 134.87C68.71 134.84 68.77 134.8 68.82 134.77C70.1 134 71.36 133.2 72.65 132.47C74.78 131.26 77.03 130.21 79.74 129.71C85.79 128.59 89.71 128.82 95.76 126.45C100.34 124.65 103.02 121.52 107.43 119.58C111.33 117.86 115.22 117.81 119.04 117.01C119.75 117.49 120.54 117.93 121.45 118.29C123.37 119.07 126.41 119.65 128.47 119.71C128.84 119.71 129.23 119.72 129.63 119.73C129.2 120.05 128.77 120.37 128.34 120.68H128.36ZM196.37 78.28C201.78 77.38 206.29 78.86 209.83 81.06C201.9 81.26 193.99 82.66 186.05 82.58C184.42 82.56 182.81 82.47 181.2 82.33C187.47 80.35 192.79 78.88 196.37 78.28ZM111.43 84.6C112.89 84.57 114.37 84.37 115.82 84.42C126.66 84.8 137.53 86.68 148.39 86.31C148.96 86.29 149.54 86.27 150.11 86.24C154.72 85.97 159.17 85.21 163.88 85.34C164.57 85.36 165.25 85.4 165.93 85.45C166.16 85.47 166.4 85.49 166.63 85.51C167.08 85.55 167.52 85.59 167.96 85.64C168.75 85.73 169.55 85.83 170.34 85.93C174.33 86.48 178.3 87.24 182.4 87.42C192.62 87.89 202.82 85.98 213.02 85.89C213.88 85.89 214.74 85.92 215.61 85.98C216.7 86.05 217.79 86.14 218.87 86.21C218.88 86.21 218.89 86.21 218.91 86.21C219.32 86.24 219.73 86.26 220.15 86.28C220.39 86.29 220.62 86.3 220.86 86.31C221.04 86.31 221.21 86.32 221.39 86.32C221.66 86.32 221.92 86.32 222.19 86.32C222.33 86.32 222.48 86.32 222.62 86.31C223.26 86.29 223.9 86.25 224.53 86.18C224.6 86.18 224.67 86.17 224.74 86.16C226.32 85.95 227.86 85.36 229.48 85.22C233.01 84.91 236.56 85.55 239.26 87.99C239.48 89.66 240.13 91.45 240.4 93.1C240.45 93.4 240.62 93.6 240.17 93.61C237.13 92.36 233.68 91.07 230.39 90.83C230.02 90.8 229.51 90.79 228.91 90.79C228.35 90.79 227.71 90.8 227.05 90.82C227.05 90.82 227.03 90.82 227.02 90.82C226.38 90.84 225.72 90.87 225.08 90.91C225.04 90.91 225.01 90.91 224.97 90.91C224.67 90.93 224.37 90.95 224.09 90.97C224.05 90.97 224.01 90.97 223.97 90.97C223.71 90.99 223.46 91.01 223.23 91.03C223.2 91.03 223.16 91.03 223.13 91.03C222.89 91.05 222.66 91.07 222.45 91.1C222.4 91.1 222.36 91.11 222.31 91.12C222.11 91.14 221.92 91.17 221.76 91.19C218.42 91.72 216.28 93.25 212.31 93.34C211.79 93.35 211.32 93.34 210.85 93.3C210.78 93.3 210.71 93.3 210.64 93.29C210.2 93.25 209.79 93.2 209.39 93.13C209.32 93.12 209.25 93.1 209.18 93.09C208.79 93.01 208.4 92.93 208.04 92.83C208 92.82 207.95 92.81 207.91 92.79C207.53 92.68 207.16 92.57 206.79 92.44C204.73 91.73 202.89 90.83 200.3 90.51C194.43 89.79 189.98 93.38 184.27 93.11C179.23 92.87 175.13 89.72 169.94 89.51C165.08 89.33 160.62 91.54 155.9 92.21C154.68 92.38 153.45 92.41 152.2 92.35H152.21C150.08 92.24 147.91 91.86 145.73 91.41C145.56 91.38 145.4 91.34 145.23 91.31C144.91 91.24 144.59 91.17 144.27 91.1C143.76 90.99 143.24 90.87 142.72 90.76C142.44 90.7 142.17 90.64 141.89 90.58C141.59 90.51 141.29 90.45 140.98 90.38C140.75 90.33 140.51 90.29 140.27 90.24C140.27 90.24 140.25 90.24 140.24 90.24C139.91 90.17 139.58 90.1 139.25 90.04C139.16 90.02 139.06 90.01 138.97 89.99C138.86 89.97 138.74 89.95 138.63 89.93C138.59 89.93 138.56 89.92 138.52 89.91C138.18 89.85 137.84 89.79 137.5 89.74C137.3 89.71 137.11 89.69 136.91 89.66C136.51 89.61 136.11 89.56 135.71 89.52C135.5 89.5 135.28 89.48 135.07 89.46C134.66 89.43 134.25 89.41 133.84 89.39C133.65 89.39 133.46 89.37 133.26 89.37C132.66 89.37 132.07 89.37 131.47 89.41C130.93 89.44 130.4 89.51 129.88 89.6C129.64 89.64 129.41 89.69 129.18 89.74C128.92 89.79 128.65 89.84 128.39 89.9C127.24 90.17 126.12 90.49 124.97 90.75C123.42 91.11 121.83 91.36 120.05 91.19C118.96 91.08 115.5 90.49 114.8 89.9C114.42 89.57 112.41 86.8 112.04 86.22C111.71 85.72 111.43 85.2 111.39 84.58L111.43 84.6ZM36.1 120.54C37.65 120.33 41.06 119.86 45.63 119.2C45.19 119.38 44.76 119.55 44.31 119.71C41.02 120.92 37.57 121.71 34.19 122.56C34.7 121.73 35.51 120.99 36.09 120.53L36.1 120.54ZM17.75 137.61C17.25 137.45 14.13 135.69 13.52 135.3C13 134.96 12.51 134.61 12.23 134.07C13.69 133.52 15.07 132.82 16.56 132.35C20.02 131.25 23.54 130.28 27.07 129.34C27.68 129.18 28.29 129.02 28.89 128.86C36.6 126.83 44.34 124.84 51.6 121.82C56.12 119.95 60.27 117.7 65.04 116.14C71.35 114.09 78 113.44 84.41 111.46C85.69 111.06 86.96 110.64 88.22 110.18C88.5 110.08 88.77 109.97 89.04 109.87C90.04 109.5 91.04 109.12 92.03 108.73C92.17 108.67 92.31 108.61 92.45 108.56C99.38 105.76 106.07 102.44 113.06 99.79C113.36 102.17 113.5 104.65 113.85 107.01C112.53 107.26 111.31 107.33 110.11 107.35C109.96 107.35 109.81 107.35 109.67 107.35C109.37 107.35 109.07 107.36 108.77 107.36C108.01 107.37 107.24 107.39 106.44 107.45C106.33 107.45 106.22 107.47 106.11 107.48C105.82 107.51 105.52 107.54 105.22 107.58C105.1 107.6 104.98 107.61 104.86 107.63C104.45 107.69 104.03 107.77 103.59 107.87C103.07 107.99 102.58 108.14 102.1 108.31C101.98 108.35 101.87 108.39 101.75 108.43C101.29 108.6 100.84 108.79 100.41 108.99C100.41 108.99 100.4 108.99 100.39 108.99C99.95 109.2 99.54 109.43 99.13 109.66C99.03 109.72 98.93 109.77 98.84 109.83C95.43 111.85 92.7 114.61 88.58 115.87C83.44 117.44 78.07 116.06 72.8 117.72C67.87 119.27 64.28 122.83 59.81 125.1C52.42 128.85 42.42 127.79 34.25 131.24C34.14 131.29 34.04 131.34 33.94 131.39C32.18 132.18 30.7 133.2 29.18 134.19C29.07 134.26 28.95 134.34 28.83 134.41C28.61 134.55 28.38 134.69 28.16 134.83C27.96 134.95 27.76 135.07 27.55 135.19C27.37 135.3 27.18 135.4 26.99 135.5C26.79 135.61 26.59 135.72 26.38 135.82C25.51 136.25 24.57 136.62 23.53 136.89C22.4 137.17 18.69 137.88 17.76 137.58L17.75 137.61ZM21.68 140.26C22.21 140.12 23.32 140.19 24.04 140.04C24.66 139.91 25.24 139.74 25.8 139.55C26.54 139.3 27.24 139 27.9 138.68C28.21 138.52 28.52 138.36 28.82 138.2C28.86 138.18 28.91 138.15 28.95 138.13C29.21 137.99 29.47 137.84 29.72 137.69C29.78 137.65 29.84 137.62 29.91 137.58C30.13 137.45 30.34 137.32 30.56 137.19C31.54 136.58 32.5 135.96 33.51 135.37C34.68 134.68 35.91 134.04 37.32 133.55C43.5 131.39 49.73 131.8 55.89 130.3C64.09 128.31 68.91 121.13 77.67 120.11C82 119.62 85.9 120.13 90.16 118.6C96.41 116.34 100.12 111.05 107.22 110.43C108.93 110.28 110.86 110.54 112.48 110.43C113.06 110.39 113.74 110.27 114.47 110.08C114.81 111.36 115.28 112.57 115.93 113.68C113.68 113.93 111.39 114.02 109.23 114.63C102.16 116.61 98.73 121.42 92.19 123.79C86.6 125.82 81.45 125.18 75.94 126.92C70.9 128.51 66.57 132.13 61.5 134.03C53.69 136.96 45.54 137.01 37.85 140.54C35.23 141.74 32.77 143.29 30.17 144.57C30.06 144.63 29.94 144.68 29.82 144.74C29.45 144.92 29.07 145.09 28.69 145.25C28.53 145.32 28.37 145.39 28.2 145.46C27.84 145.61 27.47 145.75 27.09 145.88C26.93 145.94 26.77 146 26.61 146.05C26.08 146.22 25.54 146.38 24.99 146.51C24.93 146.5 24.86 146.45 24.79 146.38C24.72 146.31 24.65 146.22 24.57 146.11C24.11 145.44 23.58 144.13 23.33 143.71C22.73 142.71 22.05 141.69 21.36 140.74C21.43 140.48 21.31 140.36 21.65 140.27L21.68 140.26ZM219.12 137.57C216.38 141.05 212.8 143.54 209.06 145.75C208.08 146.33 206.7 146.19 205.52 146.46C203.46 146.93 201.33 147.26 199.37 148C195.04 149.65 190.93 152.12 186.47 153.15C182.25 154.13 177.71 153.72 173.3 153.86C171.41 153.92 169.47 153.54 167.64 153.86C164.33 154.44 160.87 154.93 158.9 158.34C158.61 158.84 157.69 159.18 157.03 159.24C155.63 159.38 154.2 159.19 152.81 159.34C151.76 159.46 150.49 159.62 149.75 160.26C148.18 161.63 146.42 161.97 144.49 161.99C143.14 162 141.77 161.88 140.46 162.1C139.6 162.24 138.51 162.68 138.07 163.34C137.38 164.38 136.56 164.72 135.48 164.68C133.02 164.58 130.75 165.03 128.72 166.52C128.33 166.81 127.65 166.84 127.13 166.78C121.87 166.1 116.88 167.17 112.11 169.29C107.4 171.38 102.34 171.98 97.34 172.8C90.4 173.94 83.48 175.19 76.53 176.22C71.39 176.98 66.2 177.44 61.04 178.08C59.29 178.29 57.53 178.57 55.79 178.91C51.09 179.81 46.78 178.72 42.76 176.34C40.71 175.13 38.83 173.64 36.85 172.31C33.12 169.79 31.63 166.01 30.79 161.81C30.65 161.11 30.55 160.41 30.48 159.71C31.95 160.32 33.64 160.68 35.64 160.7C37.86 160.72 41.13 160.16 43.22 159.48C44.07 159.2 45.02 158.88 46 158.53C45.15 158.87 44.3 159.23 43.44 159.57C44.59 162.04 47.22 161.76 51.14 158.32C50.35 157.94 49.61 157.26 49.13 157.4C49.09 157.41 49.06 157.42 49.02 157.44C51.69 156.44 54.41 155.36 56.48 154.42C62.62 151.64 67.62 146.6 74.41 144.91C81.06 143.26 88.24 143.42 94.66 141.02C98.54 139.57 101.05 136.77 104.36 134.58C110.02 133.37 115.67 132.09 121.6 132.29C125.52 132.43 129.5 131 133.45 130.33C137.05 129.72 140.71 129.36 144.27 128.59C147.67 127.87 150.93 126.33 154.35 125.92C159.12 125.35 163.4 123.67 167.81 121.95C170.52 120.89 173.29 119.99 176.1 119.21C177.38 119.37 178.66 119.46 179.96 119.44C184.95 119.34 188.82 116.35 193.98 115.96C198.49 115.62 201.94 117.2 206.1 117.56C214.09 118.25 220.33 114.84 227.7 113.85C226.73 122.38 224.62 130.57 219.11 137.56L219.12 137.57ZM244.8 110.86C243.19 111.02 239.64 110.13 237.08 109.62C236.81 109.57 236.55 109.52 236.3 109.47C236.25 109.47 236.19 109.45 236.14 109.44C235.9 109.4 235.66 109.36 235.46 109.33C235.16 109.29 234.85 109.25 234.54 109.21C234.42 109.19 234.29 109.18 234.16 109.17C233.96 109.15 233.77 109.12 233.57 109.1C233.41 109.08 233.24 109.06 233.07 109.05C232.9 109.03 232.73 109.02 232.56 109C232.37 108.98 232.18 108.96 231.99 108.95C231.84 108.94 231.7 108.92 231.55 108.91C231.34 108.89 231.13 108.88 230.91 108.86C230.79 108.86 230.67 108.84 230.55 108.84C230.32 108.82 230.08 108.81 229.85 108.8C229.79 108.8 229.73 108.8 229.67 108.8C229.09 108.77 228.52 108.75 227.98 108.75C227.98 108.75 227.97 108.75 227.96 108.75C227.57 108.75 227.19 108.75 226.84 108.77C221.44 109.01 216.7 112.16 211.12 112.5C209.62 112.59 208.15 112.51 206.69 112.36C206.17 112.3 205.65 112.24 205.14 112.16C205.07 112.15 204.99 112.14 204.92 112.13C204.43 112.06 203.95 111.98 203.46 111.9C202.34 111.72 201.22 111.52 200.1 111.35C198.12 111.05 196.14 110.82 194.14 110.89C187.42 111.12 182.62 114.94 175.46 113.7C172.94 113.27 170.52 112.68 168.08 112.17C167.8 112.11 167.52 112.05 167.24 112C167.24 112 167.24 112 167.23 112C164.97 111.54 162.68 111.18 160.3 111.09C160.29 111.09 160.28 111.09 160.26 111.09C160.24 111.09 160.23 111.09 160.21 111.09C159.53 111.07 158.85 111.06 158.15 111.09C157.56 111.11 156.98 111.16 156.4 111.23C156.07 111.26 155.74 111.3 155.41 111.35C150.54 112 145.96 113.69 141.05 114.14C140.44 114.2 139.73 114.25 138.96 114.31C135.24 114.57 130.01 114.73 126.29 114.24C126.16 114.22 126.03 114.2 125.9 114.18C125.79 114.16 125.68 114.15 125.58 114.13C125.45 114.11 125.33 114.08 125.2 114.06C125.04 114.03 124.88 114 124.72 113.97C124.62 113.95 124.53 113.93 124.44 113.91C124.19 113.85 123.96 113.79 123.74 113.72C122.81 113.42 121.99 113.13 121.21 112.5C121.21 112.5 121.18 112.48 121.17 112.47C119.84 111.37 119.22 110.02 118.84 108.55C118.59 107.58 118.45 106.57 118.29 105.53C118.24 105.21 118.19 104.88 118.13 104.56L118.24 104.27C118.4 104.12 119.45 104.12 120.6 104.16C121.28 104.19 122 104.22 122.6 104.25C122.62 104.25 122.65 104.25 122.67 104.25C122.77 104.25 122.88 104.25 122.97 104.26C123.02 104.26 123.06 104.26 123.11 104.26C123.18 104.26 123.25 104.26 123.31 104.26C123.37 104.26 123.42 104.26 123.48 104.26C123.52 104.26 123.56 104.26 123.59 104.26C123.67 104.26 123.74 104.26 123.8 104.26C127.54 104.02 131.41 103.07 135.31 103.09C138.08 103.09 140.78 103.57 143.5 104.09C144.19 104.22 144.88 104.35 145.58 104.49C145.75 104.52 145.92 104.55 146.09 104.59C146.27 104.62 146.46 104.66 146.64 104.69C146.89 104.74 147.15 104.78 147.4 104.82C147.58 104.85 147.76 104.88 147.94 104.91C148.2 104.95 148.46 104.99 148.71 105.03C148.89 105.06 149.08 105.08 149.26 105.11C149.52 105.14 149.78 105.18 150.03 105.21C150.22 105.23 150.4 105.25 150.59 105.27C150.86 105.3 151.13 105.32 151.39 105.34C151.57 105.35 151.74 105.37 151.92 105.38C152.22 105.4 152.52 105.41 152.82 105.42C152.97 105.42 153.12 105.43 153.27 105.43C153.72 105.43 154.18 105.43 154.63 105.42C155.13 105.4 155.63 105.36 156.12 105.3C156.24 105.29 156.35 105.27 156.47 105.26C156.94 105.2 157.42 105.13 157.88 105.05C157.93 105.05 157.97 105.03 158.02 105.02C158.46 104.94 158.9 104.86 159.34 104.76C159.45 104.74 159.56 104.71 159.67 104.69C160.13 104.59 160.6 104.49 161.06 104.38C164.41 103.62 167.71 102.81 171.39 103.45C171.93 103.54 172.44 103.64 172.93 103.74C174.37 104.03 175.67 104.35 176.93 104.65C177 104.67 177.06 104.68 177.13 104.7C177.43 104.77 177.72 104.84 178.02 104.9C178.4 104.98 178.77 105.06 179.15 105.14C179.26 105.16 179.38 105.19 179.49 105.21C179.93 105.29 180.37 105.37 180.82 105.44C180.92 105.46 181.02 105.47 181.11 105.48C181.58 105.55 182.05 105.61 182.54 105.65C182.63 105.65 182.72 105.67 182.81 105.67C183.32 105.71 183.85 105.75 184.4 105.76C184.47 105.76 184.54 105.76 184.61 105.76C185.2 105.77 185.81 105.77 186.45 105.76C191.09 105.59 194.6 103.48 199.14 103.11C204.04 102.7 207.97 104.69 212.54 104.82C216.69 104.94 220.81 103.43 224.9 103.03C225.38 102.98 225.83 102.95 226.29 102.92C226.78 102.89 227.25 102.88 227.72 102.87C227.8 102.87 227.87 102.87 227.95 102.87C228.37 102.87 228.79 102.87 229.19 102.89C229.23 102.89 229.28 102.89 229.32 102.89C230.23 102.93 231.11 103.01 231.97 103.13C232.03 103.13 232.09 103.15 232.15 103.15C232.53 103.2 232.9 103.26 233.27 103.32C233.32 103.32 233.38 103.34 233.43 103.35C234.28 103.5 235.12 103.67 235.97 103.86C236.01 103.86 236.05 103.88 236.09 103.89C236.5 103.98 236.92 104.08 237.34 104.18C238.86 104.53 240.44 104.92 242.19 105.29C242.76 105.41 244.1 105.36 244.45 105.56C244.66 105.68 246.43 107.87 246.64 108.2C247.68 109.84 246.26 110.7 244.75 110.86H244.8Z" fill="#DE415F"/>
<path d="M85.32 151.53C80.9 153.11 76.54 154.83 72.16 156.51C71.94 156.59 71.68 156.7 71.54 156.89C71.27 157.24 71.09 157.65 70.87 158.04C71.28 158.08 71.7 158.2 72.1 158.15C72.76 158.05 73.42 157.89 74.04 157.66C78.59 155.98 83.13 154.29 87.67 152.59C87.67 152.36 87.65 152.12 87.65 151.9C86.87 151.76 85.97 151.31 85.32 151.54V151.53Z" fill="#DE415F"/>
<path d="M192.3 127.75C189.63 129.55 187.05 131.48 184.33 133.19C182.68 134.23 180.84 134.97 179.08 135.85C179.12 136.04 179.15 136.23 179.19 136.42C180.14 136.37 181.25 136.61 182.01 136.21C186.36 133.89 191.01 131.96 193.96 127.14C193.41 127.34 192.78 127.43 192.31 127.75H192.3Z" fill="#DE415F"/>
<path d="M131.09 151.53C128.26 152.9 125.51 154.41 122.75 155.86C123.42 156.96 124.49 157.49 125.96 156.74C128.08 155.64 130.23 154.61 132.27 153.37C132.82 153.04 132.99 152.09 133.34 151.43C132.59 151.45 131.72 151.24 131.1 151.54L131.09 151.53Z" fill="#DE415F"/>
<path d="M72.16 171.69C69.87 172.41 67.67 173.4 65.23 174.38C67.32 176.55 70.97 175.82 74.59 172.5C73.6 172.15 72.75 171.51 72.15 171.7L72.16 171.69Z" fill="#DE415F"/>
<path d="M169.77 144.19C167.73 145.26 165.67 146.26 163.55 147.32C164.58 148.66 165.86 148.8 167.33 147.92C168.88 146.99 170.45 146.07 172.02 145.13C171.58 143.86 170.88 143.59 169.76 144.18L169.77 144.19Z" fill="#DE415F"/>
<path d="M59.58 167.63C58.62 168.01 57.6 168.28 56.71 168.78C56.22 169.06 55.95 169.73 55.59 170.22C56.26 170.52 57.05 171.22 57.57 171.06C59.28 170.54 60.9 169.69 62.61 168.95C61.83 167.31 60.83 167.14 59.58 167.62V167.63Z" fill="#DE415F"/>
<path d="M195.4 140.33C194.24 141.05 193 141.64 191.67 142.35C192.67 143.33 193.87 143.7 195.04 142.98C196.73 141.94 198.26 140.65 199.97 139.38C199.49 138.81 199.16 138.42 198.76 137.94C197.59 138.79 196.54 139.62 195.4 140.33Z" fill="#DE415F"/>
<path d="M214.25 120.91C213.04 121.55 211.94 122.45 210.96 123.41C210.76 123.61 211.22 124.49 211.44 125.28C213.14 124.19 214.53 123.31 216.5 122.04C215.46 121.49 214.61 120.73 214.25 120.91Z" fill="#DE415F"/>
<path d="M143.54 134.34C142.39 135.15 141.46 136.27 140.42 137.27C141.5 138.223 143.227 137.29 145.6 134.47C144.9 134.41 143.97 134.03 143.53 134.35L143.54 134.34Z" fill="#DE415F"/>
<path d="M146.09 147.71C147.94 148.76 149.57 148.05 150.91 145.61C151.11 145.24 150.65 144.5 150.44 143.75C148.8 145.25 147.51 146.42 146.09 147.7V147.71Z" fill="#DE415F"/>
<path d="M98.8399 157.77C98.4999 157.72 98.0299 157.78 97.7699 157.99C96.5299 158.94 95.3399 159.97 93.9399 161.12C94.2699 161.33 94.5899 161.66 94.9699 161.74C96.1699 161.99 99.1499 159.7 99.2299 158.49C99.2499 158.24 99.0099 157.8 98.8499 157.77H98.8399Z" fill="#DE415F"/>
<path d="M112.41 142.47C114.32 144.07 115.74 143.35 118.07 140.06C115.33 139.19 114.63 142.09 112.41 142.47Z" fill="#DE415F"/>
<path d="M175.76 125.15C174.22 126.06 172.78 127.12 171.04 128.29C174.12 129.34 175.5 126.81 177.48 125.85C177.48 125.61 177.46 125.36 177.45 125.11C176.88 125.11 176.18 124.89 175.75 125.15H175.76Z" fill="#DE415F"/>
<path d="M207.51 138.98C209.5 140.05 209.76 139.97 212.4 137.5C211.707 136.807 210.077 137.3 207.51 138.98Z" fill="#DE415F"/>
</g>
<defs>
<clipPath id="clip0_246_566">
<rect width="245.18" height="118.56" fill="white" transform="translate(7 71)"/>
</clipPath>
</defs>
</svg>
